<svg id="svg" version="1.1" xmlns="http://www.w3.org/2000/svg" xmlns:xlink="http://www.w3.org/1999/xlink" width="400" height="192.09677419354836" viewBox="0, 0, 400,192.09677419354836"><g id="svgg"><path id="path0" d="M208.898 84.501 C 208.493 84.705,208.102 85.065,207.943 85.381 C 207.553 86.157,205.701 91.221,205.341 92.497 C 205.172 93.094,204.603 94.746,204.076 96.167 C 201.131 104.109,200.883 104.803,200.117 107.250 C 199.973 107.708,199.394 109.321,198.831 110.833 C 196.396 117.370,195.467 119.959,195.332 120.583 C 195.253 120.950,195.071 121.529,194.928 121.870 C 194.391 123.143,194.820 124.879,195.779 125.316 C 196.039 125.435,197.692 125.500,200.440 125.500 C 205.325 125.500,205.323 125.501,206.090 123.987 C 206.767 122.651,206.668 122.667,214.362 122.667 C 221.929 122.667,221.740 122.636,222.373 123.960 C 223.089 125.455,223.254 125.500,228.030 125.500 C 234.350 125.500,234.849 125.036,233.257 120.636 C 231.213 114.985,230.803 113.878,230.589 113.417 C 230.462 113.142,230.197 112.317,230.000 111.583 C 229.804 110.850,229.464 109.800,229.245 109.250 C 228.529 107.454,225.757 99.771,224.464 96.000 C 224.134 95.037,223.404 93.013,222.843 91.500 C 222.281 89.987,221.554 88.000,221.226 87.083 C 220.809 85.919,220.458 85.241,220.062 84.833 L 219.495 84.250 214.539 84.204 C 209.814 84.159,209.552 84.173,208.898 84.501 M250.807 84.351 C 246.867 84.732,242.859 86.207,240.138 88.280 C 239.618 88.676,239.112 89.000,239.014 89.000 C 238.711 89.000,235.735 92.103,235.438 92.728 C 235.285 93.052,234.971 93.540,234.742 93.813 C 234.512 94.085,233.956 95.083,233.505 96.029 C 229.339 104.776,231.781 115.229,239.331 120.968 C 240.018 121.490,240.715 122.038,240.881 122.187 C 241.047 122.335,241.498 122.588,241.883 122.748 C 242.924 123.181,244.869 124.006,245.250 124.177 C 247.901 125.367,261.514 126.187,262.370 125.208 C 262.815 124.700,264.068 114.378,263.744 113.884 L 263.492 113.500 257.087 113.500 C 249.993 113.500,249.831 113.478,247.753 112.260 C 246.939 111.783,245.000 109.935,245.000 109.636 C 245.000 109.544,244.856 109.266,244.680 109.019 C 242.941 106.576,243.583 101.181,245.865 99.074 C 248.389 96.744,250.032 96.333,256.843 96.333 C 261.656 96.333,262.137 96.308,262.368 96.042 C 262.545 95.838,262.830 94.131,263.315 90.380 C 264.054 84.666,264.052 84.476,263.258 84.263 C 262.731 84.121,252.432 84.194,250.807 84.351 M267.767 84.340 C 266.451 84.734,266.114 85.460,265.672 88.857 C 264.733 96.085,264.822 96.212,270.941 96.333 C 277.137 96.457,276.500 94.780,276.500 110.954 C 276.500 127.050,275.858 125.493,282.500 125.497 C 287.069 125.500,287.399 125.433,288.122 124.350 L 288.500 123.784 288.501 111.267 C 288.502 97.761,288.493 97.895,289.424 96.993 L 290.017 96.417 293.747 96.333 C 298.970 96.217,298.756 96.427,299.518 90.666 C 300.178 85.677,299.992 84.884,298.036 84.341 C 297.269 84.128,268.479 84.127,267.767 84.340 M118.417 96.731 C 114.891 97.318,114.568 97.586,114.694 99.817 C 114.749 100.782,114.858 101.106,115.491 102.170 C 116.463 103.806,118.001 106.945,118.593 108.500 C 120.229 112.799,124.029 113.766,126.931 110.623 C 127.374 110.143,129.014 108.415,130.577 106.782 C 132.139 105.150,133.633 103.439,133.898 102.979 L 134.379 102.143 133.648 101.392 C 130.220 97.872,123.648 95.861,118.417 96.731 M143.399 97.081 C 141.710 97.338,139.025 97.942,138.717 98.134 C 138.574 98.224,138.561 98.443,138.672 98.921 C 139.081 100.685,138.784 103.095,137.946 104.820 C 137.022 106.722,128.958 115.122,127.375 115.831 C 126.315 116.307,126.317 116.101,127.346 118.547 C 136.781 140.977,155.192 149.546,176.268 141.317 L 177.954 140.660 178.322 139.418 C 183.551 121.804,170.955 100.959,152.883 97.319 C 150.580 96.855,145.687 96.732,143.399 97.081 M150.663 102.082 C 154.314 103.028,156.232 105.538,154.536 107.151 C 151.105 110.415,140.928 107.043,143.161 103.382 C 144.073 101.886,147.569 101.281,150.663 102.082 M215.458 104.341 C 216.191 105.126,217.268 108.520,216.994 109.182 C 216.160 111.195,211.930 111.020,211.410 108.950 C 211.297 108.500,212.307 105.176,212.714 104.659 C 213.472 103.695,214.719 103.551,215.458 104.341 M114.250 117.000 C 113.058 117.365,111.108 117.852,109.917 118.084 C 108.725 118.315,107.362 118.582,106.887 118.678 C 105.914 118.874,104.919 119.525,104.248 120.405 L 103.794 120.999 104.154 121.886 C 106.550 127.789,113.110 132.859,118.600 133.050 C 119.984 133.099,120.024 132.986,120.846 126.820 C 121.750 120.037,121.732 119.555,120.515 118.018 C 119.168 116.318,117.411 116.033,114.250 117.000 " stroke="none" fill="#04abeb" fill-rule="evenodd"></path><path id="path1" d="M94.000 11.115 C 82.235 12.354,70.867 22.189,66.682 34.750 C 62.979 45.864,65.330 57.059,73.100 65.319 L 74.361 66.659 75.555 65.437 C 78.881 62.037,81.132 61.898,89.335 64.586 C 95.665 66.659,95.896 66.761,97.336 68.114 L 98.434 69.145 99.149 68.397 C 100.541 66.942,101.263 66.605,107.151 64.659 C 115.248 61.984,117.215 61.956,120.318 64.471 L 121.054 65.066 121.706 64.325 C 123.965 61.760,126.355 57.624,127.421 54.438 C 134.489 33.316,115.606 8.840,94.000 11.115 M63.500 28.194 C 62.904 28.565,61.301 29.479,59.938 30.225 L 57.460 31.582 57.055 32.496 C 55.841 35.243,56.373 36.731,58.788 37.341 L 59.917 37.625 60.667 37.207 C 61.079 36.977,61.469 36.743,61.532 36.686 C 61.596 36.630,61.911 35.717,62.232 34.658 C 62.691 33.142,63.850 30.171,64.943 27.708 C 65.108 27.336,64.606 27.505,63.500 28.194 M32.333 46.164 C 31.279 46.796,30.042 47.528,29.583 47.790 C 28.104 48.637,27.918 48.748,27.833 48.844 C 27.787 48.896,27.375 49.191,26.917 49.500 C 24.547 51.096,20.786 55.756,20.394 57.583 C 20.375 57.675,20.130 58.365,19.851 59.116 C 18.596 62.492,18.655 61.128,18.664 86.875 C 18.668 99.536,18.692 109.914,18.716 109.938 C 18.740 109.962,19.433 109.034,20.255 107.876 C 21.077 106.718,22.444 105.037,23.292 104.140 L 24.833 102.511 24.833 83.777 C 24.833 63.257,24.825 63.460,25.819 60.900 C 27.106 57.585,29.332 55.155,33.000 53.059 L 34.417 52.250 34.473 48.625 C 34.504 46.631,34.466 45.003,34.389 45.007 C 34.313 45.011,33.387 45.531,32.333 46.164 M76.756 46.813 C 78.885 47.780,80.604 51.572,80.468 55.000 C 80.347 58.058,78.837 59.307,76.814 58.024 C 72.404 55.227,72.351 44.812,76.756 46.813 M121.523 46.762 C 122.375 47.202,122.879 48.555,122.878 50.398 C 122.875 57.682,116.035 62.056,115.697 54.989 C 115.467 50.175,118.859 45.384,121.523 46.762 M167.714 48.545 C 167.099 49.363,166.000 52.711,166.000 53.768 C 166.000 54.170,165.924 54.500,165.832 54.500 C 165.739 54.500,166.127 54.894,166.693 55.375 C 168.070 56.545,169.362 58.258,170.244 60.083 C 171.676 63.047,171.571 61.286,171.626 83.152 L 171.675 102.554 172.889 103.902 C 174.722 105.937,175.743 107.213,176.883 108.893 L 177.917 110.417 177.963 87.417 C 178.018 60.129,178.119 61.553,175.794 56.858 C 174.596 54.441,170.917 49.932,170.300 50.125 C 170.227 50.148,170.167 50.098,170.167 50.014 C 170.167 49.929,169.885 49.688,169.542 49.478 C 169.198 49.268,168.817 48.999,168.695 48.880 C 168.266 48.462,167.877 48.329,167.714 48.545 M131.383 56.662 C 130.674 59.373,127.866 63.848,124.447 67.716 L 123.477 68.813 123.822 70.844 C 124.953 77.502,123.498 82.906,119.518 86.833 C 114.002 92.276,107.586 91.995,103.648 86.140 C 102.692 84.717,101.103 82.757,99.297 80.771 L 98.406 79.791 97.228 81.104 C 95.629 82.887,94.028 84.894,93.035 86.363 C 88.877 92.511,81.300 92.073,75.979 85.377 C 73.599 82.382,72.774 79.607,72.760 74.547 L 72.750 71.010 71.333 69.694 C 70.554 68.969,69.429 67.794,68.833 67.081 C 68.237 66.369,67.448 65.463,67.079 65.068 C 66.173 64.101,63.352 59.222,62.808 57.683 C 62.733 57.471,58.336 59.694,54.374 61.946 L 53.664 62.349 53.489 61.883 C 51.896 57.657,47.987 55.914,44.227 57.754 C 42.174 58.759,41.976 59.133,38.686 68.250 C 33.631 82.255,33.828 81.669,33.831 82.717 C 33.836 84.782,35.175 86.167,37.167 86.167 C 39.216 86.167,39.886 85.435,41.160 81.806 C 42.093 79.149,42.128 79.082,42.617 79.033 L 43.117 78.983 43.224 81.783 C 43.282 83.323,43.380 86.441,43.440 88.710 L 43.550 92.837 44.650 92.710 C 48.831 92.227,54.175 92.636,58.239 93.750 L 60.364 94.333 61.783 93.268 C 67.495 88.980,74.067 87.990,79.604 90.581 C 86.198 93.666,87.962 98.820,84.510 104.917 C 83.470 106.753,82.454 108.874,81.914 110.333 C 81.795 110.654,81.581 111.190,81.438 111.524 L 81.177 112.131 82.630 112.585 C 84.812 113.266,86.850 113.755,89.167 114.153 C 101.981 116.352,99.572 133.471,85.750 138.425 L 84.250 138.963 83.412 141.440 C 82.150 145.170,80.715 147.969,78.507 151.006 L 77.715 152.094 79.795 153.339 C 80.939 154.023,82.753 155.154,83.827 155.851 L 85.780 157.118 85.880 159.434 C 86.091 164.362,87.235 167.208,90.014 169.723 C 96.045 175.180,107.607 172.830,109.344 165.794 C 110.264 162.064,105.628 159.769,103.378 162.841 C 101.503 165.402,100.465 166.061,98.309 166.061 C 95.947 166.061,94.219 164.845,93.468 162.655 C 93.135 161.682,93.140 161.681,94.606 162.375 C 95.733 162.909,95.786 162.917,98.167 162.917 C 101.352 162.917,102.176 162.599,106.417 159.741 C 106.875 159.432,108.053 158.708,109.034 158.131 C 110.015 157.555,112.265 156.177,114.034 155.070 C 115.803 153.962,117.550 152.880,117.917 152.666 C 118.283 152.451,118.608 152.258,118.637 152.236 C 118.667 152.215,118.288 151.647,117.794 150.974 C 115.639 148.037,114.238 145.171,112.849 140.862 L 112.241 138.974 110.512 138.322 C 103.240 135.578,99.137 130.221,99.097 123.417 C 99.066 118.076,101.750 115.072,107.449 114.075 C 109.798 113.663,111.762 113.187,114.016 112.483 L 115.283 112.087 114.479 110.131 C 113.581 107.946,112.703 106.156,111.679 104.417 C 107.535 97.381,112.809 89.848,122.417 89.079 C 126.344 88.765,131.574 90.651,135.424 93.771 L 136.099 94.318 137.424 93.905 C 138.850 93.461,141.859 92.834,144.198 92.494 C 145.740 92.269,150.940 92.365,152.292 92.643 C 153.141 92.818,152.963 94.427,153.325 83.262 C 153.692 71.951,153.652 71.423,152.244 69.085 C 151.760 68.281,151.667 67.969,151.667 67.146 L 151.667 66.167 154.648 66.167 C 156.672 66.167,157.782 66.100,158.106 65.958 C 160.908 64.731,161.246 61.207,158.704 59.713 L 157.917 59.250 148.500 59.200 C 142.123 59.167,138.850 59.209,138.359 59.332 C 137.639 59.512,137.619 59.504,134.554 57.917 C 131.714 56.446,131.465 56.348,131.383 56.662 M47.489 64.875 C 47.667 65.383,47.645 65.443,47.132 65.862 C 46.436 66.430,46.412 66.391,46.767 65.265 C 47.106 64.191,47.228 64.125,47.489 64.875 M80.070 67.398 C 75.925 69.328,75.863 79.167,79.968 83.449 C 83.720 87.360,87.144 87.454,89.645 83.714 C 90.562 82.343,92.705 79.662,93.953 78.324 C 95.835 76.306,96.264 74.455,95.288 72.560 C 94.445 70.924,94.074 70.727,88.113 68.763 C 82.112 66.786,81.578 66.695,80.070 67.398 M108.627 68.784 C 102.667 70.760,102.233 70.999,101.502 72.698 C 100.667 74.640,101.106 76.438,102.875 78.315 C 104.274 79.800,105.737 81.616,106.917 83.333 C 108.408 85.504,109.100 86.080,110.604 86.405 C 112.948 86.911,116.783 84.419,118.402 81.339 C 120.451 77.440,120.360 70.861,118.225 68.492 C 116.419 66.489,115.456 66.518,108.627 68.784 M305.557 84.319 C 304.693 84.537,303.952 85.055,303.419 85.814 L 302.917 86.529 302.873 104.685 C 302.825 124.637,302.759 123.256,303.811 124.390 C 304.757 125.411,305.159 125.500,308.785 125.498 C 312.673 125.496,313.415 125.292,314.281 123.983 L 314.750 123.274 314.798 105.262 C 314.825 95.355,314.805 87.018,314.754 86.735 C 314.633 86.060,313.623 84.895,312.858 84.548 C 312.181 84.242,306.560 84.065,305.557 84.319 M320.290 84.405 C 318.639 84.994,318.085 86.670,318.893 88.630 C 319.109 89.154,319.537 90.333,319.843 91.250 C 320.720 93.871,322.065 97.671,323.176 100.667 C 323.738 102.179,324.467 104.204,324.797 105.167 C 326.099 108.963,329.251 117.710,329.572 118.417 C 329.697 118.692,329.926 119.367,330.082 119.917 C 331.678 125.565,331.586 125.500,337.999 125.500 C 343.746 125.500,344.285 125.326,344.853 123.284 C 345.072 122.493,346.165 119.408,347.669 115.333 C 348.227 113.821,348.995 111.683,349.376 110.583 C 351.334 104.924,352.097 102.807,353.923 97.973 C 354.327 96.904,354.801 95.516,354.977 94.890 C 355.153 94.263,355.766 92.513,356.338 91.000 C 358.564 85.122,357.922 84.166,351.750 84.172 C 346.788 84.176,346.272 84.451,345.423 87.536 C 345.290 88.021,344.685 89.692,344.079 91.250 C 341.781 97.156,340.970 99.281,340.641 100.250 C 339.936 102.326,339.289 103.001,338.003 102.999 C 336.612 102.998,336.080 102.326,335.002 99.207 C 334.566 97.947,333.947 96.242,333.626 95.417 C 333.305 94.592,332.657 92.904,332.186 91.667 C 331.715 90.429,331.257 89.267,331.168 89.083 C 330.822 88.367,330.000 86.077,330.000 85.828 C 330.000 85.399,328.924 84.486,328.229 84.324 C 327.178 84.081,321.024 84.143,320.290 84.405 M363.990 84.391 C 362.952 84.675,362.254 85.209,361.709 86.136 L 361.250 86.917 361.202 104.500 C 361.148 124.165,361.088 123.106,362.325 124.337 C 363.517 125.524,363.269 125.500,374.119 125.500 C 385.439 125.500,385.299 125.524,386.373 123.421 C 387.026 122.143,387.540 116.815,387.109 115.786 C 386.214 113.653,385.711 113.508,379.158 113.504 C 373.060 113.500,373.333 113.559,373.333 112.226 C 373.333 110.804,373.212 110.833,379.180 110.833 L 384.287 110.833 384.935 110.399 C 386.367 109.440,386.674 108.698,387.091 105.199 C 387.522 101.581,387.194 100.353,385.537 99.379 L 384.750 98.917 379.083 98.833 L 373.417 98.750 373.366 97.778 C 373.287 96.255,373.002 96.333,378.645 96.332 C 385.976 96.331,386.358 96.098,387.010 91.220 C 387.598 86.816,387.306 85.719,385.250 84.610 C 384.431 84.168,365.515 83.973,363.990 84.391 M59.417 163.682 C 57.958 164.080,54.700 164.615,52.833 164.763 C 52.054 164.825,51.355 164.912,51.280 164.955 C 51.204 164.999,51.950 165.510,52.936 166.091 C 53.922 166.672,54.790 167.110,54.865 167.064 C 54.939 167.018,55.000 167.060,55.000 167.157 C 55.000 167.254,55.107 167.333,55.238 167.333 C 55.369 167.333,55.575 167.432,55.696 167.553 C 55.818 167.673,56.892 168.336,58.083 169.026 C 59.275 169.715,60.933 170.696,61.767 171.204 C 62.601 171.713,63.629 172.282,64.051 172.468 C 64.473 172.655,65.365 173.156,66.034 173.581 C 67.690 174.633,69.861 175.920,71.167 176.624 C 71.762 176.946,72.550 177.378,72.917 177.585 C 73.283 177.793,73.958 178.170,74.417 178.423 C 74.875 178.677,75.287 178.937,75.333 179.001 C 75.433 179.142,79.603 181.554,80.667 182.086 C 81.380 182.444,83.378 183.606,85.000 184.608 C 85.412 184.863,86.090 185.273,86.506 185.519 L 87.262 185.966 89.590 184.605 C 90.869 183.857,92.354 182.971,92.889 182.636 L 93.861 182.028 93.076 181.681 C 92.644 181.490,92.261 181.333,92.225 181.333 C 92.149 181.333,86.086 177.865,79.833 174.244 C 77.496 172.890,73.933 170.832,71.917 169.670 C 69.900 168.508,66.616 166.607,64.619 165.445 C 62.622 164.284,60.897 163.340,60.785 163.348 C 60.674 163.357,60.058 163.507,59.417 163.682 " stroke="none" fill="#f18827" fill-rule="evenodd"></path><path id="path2" d="M127.694 25.301 C 127.725 25.375,128.332 26.594,129.044 28.009 C 129.756 29.425,130.696 31.555,131.133 32.742 L 131.927 34.901 133.839 36.007 C 134.890 36.614,137.550 38.150,139.750 39.418 C 141.950 40.687,145.587 42.789,147.833 44.090 C 154.732 48.087,160.155 51.219,162.250 52.416 C 163.350 53.044,164.564 53.771,164.947 54.029 C 165.881 54.660,166.000 54.630,166.000 53.759 C 166.000 52.901,166.662 50.693,167.335 49.304 C 167.864 48.211,167.930 48.326,166.250 47.415 C 165.608 47.066,164.853 46.612,164.571 46.405 C 164.290 46.198,163.240 45.601,162.238 45.078 C 161.236 44.556,160.304 44.037,160.167 43.925 C 159.900 43.708,155.178 40.965,153.275 39.923 C 152.647 39.579,151.597 38.972,150.942 38.574 C 149.145 37.483,145.150 35.153,144.583 34.864 C 143.872 34.502,139.300 31.835,139.000 31.607 C 138.640 31.333,138.119 31.041,136.333 30.113 C 135.462 29.660,134.712 29.240,134.667 29.178 C 134.621 29.117,133.421 28.399,132.000 27.583 C 130.579 26.768,129.379 26.055,129.333 25.999 C 129.287 25.943,129.006 25.799,128.708 25.679 C 128.410 25.558,128.167 25.394,128.167 25.313 C 128.167 25.233,128.048 25.167,127.903 25.167 C 127.758 25.167,127.664 25.227,127.694 25.301 M56.417 32.329 C 55.752 32.794,53.206 34.289,51.576 35.170 C 49.788 36.138,48.696 36.768,47.000 37.811 C 46.038 38.403,44.275 39.425,43.083 40.083 C 41.114 41.169,39.743 41.966,35.974 44.215 C 35.272 44.633,34.663 44.941,34.620 44.897 C 34.576 44.854,34.486 46.439,34.419 48.419 C 34.351 50.398,34.340 52.062,34.393 52.115 C 34.493 52.215,35.114 51.869,43.417 47.084 C 52.789 41.682,57.264 39.105,58.570 38.356 L 59.889 37.600 58.775 37.328 C 56.385 36.745,55.847 35.215,57.062 32.458 C 57.387 31.722,57.306 31.706,56.417 32.329 M171.500 51.155 C 171.500 51.241,171.744 51.479,172.042 51.684 L 172.583 52.057 172.094 51.528 C 171.566 50.959,171.500 50.917,171.500 51.155 M235.283 53.328 C 233.334 54.090,232.477 55.262,231.209 58.897 C 230.757 60.191,230.192 61.813,229.952 62.500 C 229.712 63.188,228.576 66.300,227.429 69.417 C 225.469 74.740,225.342 75.158,225.338 76.311 C 225.330 78.466,226.298 79.500,228.323 79.500 C 230.317 79.500,230.931 78.851,232.069 75.546 L 232.917 73.083 237.518 73.039 L 242.119 72.995 242.999 75.595 C 243.627 77.452,244.002 78.310,244.312 78.597 C 246.422 80.553,250.003 79.198,249.999 76.445 C 249.999 75.897,249.053 73.071,247.006 67.500 C 246.349 65.712,245.548 63.462,245.226 62.500 C 242.781 55.196,242.414 54.535,240.226 53.489 C 238.940 52.874,236.636 52.800,235.283 53.328 M198.750 53.610 C 196.919 54.576,197.000 53.981,197.000 66.418 C 197.000 76.933,197.008 77.195,197.341 77.849 C 198.456 80.034,202.012 80.086,203.085 77.933 C 203.491 77.120,203.500 77.015,203.500 73.301 L 203.500 69.500 203.958 69.506 C 204.647 69.515,205.019 69.796,206.153 71.167 C 206.721 71.854,207.656 72.904,208.229 73.500 C 208.802 74.096,209.976 75.408,210.839 76.417 C 213.220 79.200,213.650 79.500,215.252 79.500 C 218.117 79.500,219.407 76.215,217.412 74.002 C 216.880 73.412,215.507 71.863,214.583 70.813 C 214.308 70.500,213.236 69.320,212.201 68.190 L 210.318 66.137 211.022 65.360 C 211.409 64.933,212.412 63.871,213.251 63.000 C 218.459 57.595,218.143 57.962,218.344 57.080 C 218.925 54.532,216.194 52.435,213.784 53.578 C 213.222 53.845,211.234 55.783,210.620 56.664 C 210.461 56.891,209.376 58.091,208.209 59.331 C 204.557 63.209,204.603 63.167,204.024 63.167 L 203.500 63.167 203.500 59.366 L 203.500 55.565 203.009 54.790 C 202.159 53.451,200.122 52.887,198.750 53.610 M260.573 53.589 C 258.100 54.829,258.174 54.437,258.174 66.333 C 258.174 80.272,257.549 79.333,266.833 79.333 C 274.298 79.333,275.455 79.080,277.377 77.025 C 280.333 73.865,279.819 67.904,276.435 66.081 L 275.838 65.760 276.660 64.976 C 278.110 63.592,278.417 62.782,278.417 60.333 C 278.417 57.120,277.436 55.479,274.709 54.127 L 273.276 53.417 267.180 53.375 C 261.969 53.339,261.009 53.370,260.573 53.589 M289.809 53.751 C 289.475 53.970,289.025 54.397,288.809 54.700 L 288.417 55.250 288.370 66.250 C 288.318 78.603,288.261 77.996,289.547 78.913 C 291.067 79.998,293.408 79.575,294.360 78.043 L 294.750 77.417 294.801 66.750 C 294.854 55.675,294.834 55.303,294.151 54.435 C 293.260 53.302,291.030 52.951,289.809 53.751 M307.709 53.582 C 306.808 53.973,305.908 54.803,305.484 55.632 L 305.083 56.417 305.037 66.894 L 304.990 77.371 305.395 78.062 C 306.567 80.061,309.843 79.984,310.968 77.931 C 311.342 77.249,311.443 71.294,311.171 66.025 C 311.065 63.976,311.006 62.272,311.039 62.238 C 311.118 62.159,314.234 67.787,315.660 70.583 C 316.267 71.775,317.031 73.200,317.356 73.750 C 317.681 74.300,318.291 75.387,318.710 76.167 C 320.125 78.792,321.186 79.500,323.707 79.500 C 325.994 79.500,327.681 78.362,328.254 76.435 C 328.658 75.075,328.617 55.813,328.208 55.012 C 327.066 52.773,323.536 52.768,322.298 55.004 C 321.992 55.556,321.979 55.930,322.035 62.958 C 322.068 67.015,322.079 70.333,322.061 70.333 C 322.002 70.333,320.881 68.284,319.873 66.333 C 319.329 65.279,318.256 63.292,317.489 61.917 C 316.723 60.542,315.706 58.655,315.229 57.724 C 313.794 54.923,313.399 54.447,311.917 53.736 C 310.928 53.262,308.638 53.178,307.709 53.582 M340.917 53.650 C 340.550 53.820,340.010 54.212,339.717 54.521 C 338.634 55.663,338.666 55.294,338.670 66.370 C 338.675 80.430,337.821 79.335,348.786 79.331 C 355.857 79.328,355.922 79.325,356.568 78.956 C 358.565 77.814,358.506 74.933,356.465 73.899 C 355.683 73.503,355.640 73.500,350.339 73.500 L 345.000 73.500 345.000 71.250 L 345.000 69.000 349.792 68.999 C 355.261 68.999,355.394 68.969,356.006 67.622 C 356.630 66.246,356.320 64.843,355.227 64.100 L 354.589 63.667 349.795 63.667 L 345.000 63.667 345.000 61.427 L 345.000 59.187 350.555 59.135 L 356.110 59.083 356.722 58.616 C 358.499 57.260,358.288 54.628,356.321 53.625 C 355.424 53.167,341.910 53.189,340.917 53.650 M366.362 53.790 C 364.890 54.745,364.524 57.191,365.651 58.542 C 366.378 59.413,367.065 59.578,370.208 59.638 L 373.167 59.694 373.167 68.437 C 373.167 76.917,373.177 77.200,373.508 77.849 C 374.341 79.482,376.772 80.055,378.372 78.995 C 379.700 78.115,379.667 78.390,379.667 68.413 L 379.667 59.667 382.308 59.667 C 385.117 59.667,385.680 59.562,386.706 58.849 C 387.958 57.979,388.227 55.787,387.232 54.558 C 386.195 53.276,386.703 53.333,376.328 53.333 L 367.067 53.333 366.362 53.790 M270.899 59.419 C 271.620 59.762,272.000 60.461,272.000 61.447 C 272.000 63.213,271.323 63.545,267.542 63.636 L 264.667 63.704 264.667 61.436 L 264.667 59.167 267.516 59.167 C 269.718 59.167,270.487 59.224,270.899 59.419 M239.065 63.650 C 239.762 65.703,240.333 67.409,240.333 67.442 C 240.333 67.474,239.094 67.500,237.580 67.500 L 234.827 67.500 234.939 67.042 C 235.001 66.790,235.568 65.121,236.199 63.333 C 236.831 61.546,237.384 59.977,237.429 59.847 C 237.580 59.410,237.788 59.892,239.065 63.650 M271.559 68.917 C 273.144 69.580,273.047 72.579,271.418 73.260 C 270.989 73.440,270.066 73.500,267.755 73.500 L 264.667 73.500 264.667 71.083 L 264.667 68.667 267.813 68.667 C 270.236 68.667,271.097 68.724,271.559 68.917 M122.792 89.121 C 123.090 89.158,123.577 89.158,123.875 89.121 C 124.173 89.084,123.929 89.053,123.333 89.053 C 122.737 89.053,122.494 89.084,122.792 89.121 M18.540 102.229 C 18.505 109.453,18.528 110.351,18.750 110.167 C 19.030 109.934,19.090 109.758,18.835 109.916 C 18.727 109.982,18.654 107.256,18.625 102.051 L 18.580 94.083 18.540 102.229 M71.667 96.907 C 68.485 97.569,64.306 99.771,62.505 101.734 L 62.093 102.183 62.493 102.937 C 62.881 103.670,65.570 106.591,69.156 110.178 C 72.858 113.881,75.939 113.240,77.927 108.354 C 78.837 106.116,79.690 104.367,80.718 102.628 C 81.879 100.665,82.131 99.368,81.599 98.096 C 81.131 96.974,74.918 96.231,71.667 96.907 M22.895 104.542 C 22.210 105.262,20.721 107.124,21.195 106.667 C 21.568 106.307,23.689 103.833,23.624 103.833 C 23.594 103.833,23.266 104.152,22.895 104.542 M77.551 116.846 C 75.950 117.639,74.965 119.226,74.980 120.988 C 74.995 122.635,76.254 131.645,76.583 132.458 C 77.446 134.591,85.490 131.205,88.863 127.288 C 90.549 125.331,92.500 122.015,92.500 121.107 C 92.500 120.154,90.594 118.810,88.917 118.580 C 87.283 118.355,84.067 117.631,82.217 117.070 C 79.956 116.385,78.614 116.320,77.551 116.846 M49.094 118.346 C 36.254 119.571,25.356 128.256,20.100 141.452 L 19.489 142.987 19.986 143.972 C 23.961 151.847,33.021 158.108,42.932 159.829 C 59.187 162.652,73.344 155.355,78.745 141.370 C 79.490 139.440,79.528 139.592,78.194 139.186 C 75.357 138.325,73.150 136.243,72.254 133.583 C 72.100 133.125,71.676 130.462,71.313 127.667 C 70.950 124.871,70.619 122.423,70.578 122.227 C 70.515 121.927,70.016 121.709,67.460 120.863 C 61.138 118.771,54.366 117.843,49.094 118.346 M137.667 134.750 C 137.978 135.071,138.270 135.333,138.315 135.333 C 138.361 135.333,138.144 135.071,137.833 134.750 C 137.522 134.429,137.230 134.167,137.185 134.167 C 137.139 134.167,137.356 134.429,137.667 134.750 M69.819 138.743 C 72.681 140.223,68.901 146.442,64.279 147.858 C 59.011 149.472,59.450 143.357,64.861 139.765 C 66.591 138.617,68.725 138.177,69.819 138.743 M131.750 165.559 C 129.642 166.774,125.067 169.406,121.583 171.406 C 118.100 173.407,113.046 176.319,110.351 177.877 C 102.714 182.295,102.014 182.564,98.167 182.573 C 96.431 182.576,95.485 182.502,94.808 182.309 L 93.865 182.040 91.974 183.192 C 90.934 183.826,89.459 184.696,88.695 185.126 C 87.406 185.852,87.334 185.920,87.695 186.074 C 87.909 186.166,88.121 186.287,88.167 186.343 C 88.212 186.400,88.400 186.489,88.583 186.543 C 88.767 186.596,89.592 186.936,90.417 187.298 C 94.835 189.239,101.259 189.421,105.167 187.718 C 105.487 187.578,105.975 187.371,106.250 187.257 C 107.388 186.787,109.126 185.909,109.750 185.491 C 110.117 185.245,110.829 184.832,111.333 184.572 C 111.837 184.313,112.290 184.043,112.339 183.973 C 112.388 183.903,112.699 183.733,113.031 183.595 C 113.362 183.456,113.737 183.247,113.863 183.130 C 114.176 182.840,115.018 182.333,115.375 182.220 C 115.535 182.169,115.667 182.074,115.667 182.008 C 115.667 181.943,115.760 181.887,115.875 181.884 C 115.990 181.881,116.616 181.568,117.267 181.189 C 117.918 180.810,118.536 180.500,118.642 180.500 C 118.747 180.500,118.833 180.439,118.833 180.365 C 118.833 180.204,121.381 178.667,121.648 178.667 C 121.750 178.667,121.833 178.600,121.833 178.518 C 121.833 178.436,122.115 178.247,122.458 178.098 C 122.802 177.949,123.983 177.297,125.083 176.649 C 126.183 176.001,127.196 175.428,127.333 175.374 C 127.471 175.321,127.897 175.065,128.280 174.805 C 128.663 174.546,129.057 174.333,129.155 174.333 C 129.253 174.333,129.333 174.258,129.333 174.167 C 129.333 174.075,129.428 174.000,129.544 174.000 C 129.660 174.000,130.279 173.693,130.919 173.318 C 131.560 172.943,132.698 172.303,133.450 171.895 C 134.790 171.170,137.178 169.792,138.667 168.888 C 140.808 167.586,141.500 167.199,141.503 167.302 C 141.504 167.365,141.560 167.342,141.628 167.250 C 141.695 167.158,142.125 166.896,142.583 166.667 C 143.042 166.438,143.454 166.205,143.500 166.150 C 143.546 166.095,143.658 166.020,143.750 165.983 C 144.152 165.822,145.331 165.074,145.332 164.978 C 145.333 164.920,144.602 164.820,143.708 164.755 C 141.797 164.617,138.851 164.139,137.005 163.668 C 136.284 163.484,135.669 163.337,135.639 163.341 C 135.608 163.345,133.858 164.343,131.750 165.559 " stroke="none" fill="#2db471" fill-rule="evenodd"></path><path id="path3" d="M72.324 17.125 L 71.750 17.750 72.375 17.176 C 72.719 16.860,73.000 16.578,73.000 16.551 C 73.000 16.423,72.859 16.543,72.324 17.125 M127.458 25.097 C 127.364 25.191,127.961 26.333,128.104 26.333 C 128.143 26.333,128.058 26.106,127.914 25.828 C 127.771 25.551,127.698 25.251,127.753 25.162 C 127.860 24.988,127.620 24.936,127.458 25.097 M128.500 27.167 C 128.687 27.533,128.878 27.833,128.923 27.833 C 128.969 27.833,128.854 27.533,128.667 27.167 C 128.480 26.800,128.289 26.500,128.243 26.500 C 128.197 26.500,128.313 26.800,128.500 27.167 M56.323 32.224 C 55.675 32.616,54.596 33.437,55.000 33.230 C 55.511 32.969,57.000 31.987,57.000 31.912 C 57.000 31.811,57.020 31.802,56.323 32.224 M131.000 32.720 C 131.000 32.750,131.119 33.144,131.264 33.595 C 131.410 34.047,131.561 34.521,131.601 34.649 C 131.642 34.777,131.710 34.846,131.753 34.803 C 131.838 34.718,131.180 32.667,131.068 32.667 C 131.031 32.667,131.000 32.691,131.000 32.720 M51.395 35.068 C 50.925 35.287,50.487 35.553,50.421 35.660 C 50.355 35.767,50.735 35.622,51.266 35.339 C 52.723 34.562,52.791 34.418,51.395 35.068 M46.544 37.884 C 45.880 38.268,45.336 38.638,45.335 38.705 C 45.334 38.772,45.896 38.485,46.583 38.067 C 47.271 37.650,47.833 37.276,47.833 37.238 C 47.833 37.134,47.854 37.124,46.544 37.884 M41.910 40.516 C 41.089 40.983,40.304 41.484,40.167 41.629 C 39.988 41.817,40.059 41.803,40.417 41.580 C 40.692 41.408,41.517 40.937,42.250 40.532 C 43.705 39.729,43.799 39.667,43.562 39.667 C 43.475 39.667,42.731 40.049,41.910 40.516 M38.125 42.762 C 37.502 43.100,37.540 43.241,38.167 42.917 C 38.442 42.774,38.667 42.623,38.667 42.579 C 38.667 42.472,38.649 42.478,38.125 42.762 M36.292 43.843 C 35.673 44.215,35.167 44.556,35.167 44.602 C 35.167 44.708,36.707 43.848,37.209 43.462 C 37.830 42.985,37.481 43.130,36.292 43.843 M26.233 49.812 C 25.876 50.075,25.358 50.544,25.084 50.854 L 24.584 51.417 25.167 50.897 C 25.794 50.337,26.223 49.984,26.750 49.592 C 26.933 49.455,27.038 49.342,26.983 49.339 C 26.928 49.336,26.591 49.549,26.233 49.812 M21.833 54.667 C 21.638 54.942,21.515 55.167,21.561 55.167 C 21.606 55.167,21.804 54.942,22.000 54.667 C 22.196 54.392,22.319 54.167,22.273 54.167 C 22.227 54.167,22.029 54.392,21.833 54.667 M207.573 59.875 L 207.083 60.417 207.625 59.927 C 208.130 59.471,208.243 59.333,208.115 59.333 C 208.086 59.333,207.842 59.577,207.573 59.875 M18.580 80.000 C 18.580 87.837,18.600 91.044,18.625 87.125 C 18.650 83.206,18.650 76.794,18.625 72.875 C 18.600 68.956,18.580 72.162,18.580 80.000 M70.167 89.405 C 67.467 89.972,64.128 91.507,61.807 93.250 L 60.365 94.333 58.239 93.750 C 51.744 91.970,44.692 92.087,38.750 94.074 C 31.339 96.552,24.768 101.548,20.118 108.240 C 19.549 109.059,18.911 109.910,18.700 110.131 C 18.001 110.863,15.333 115.834,15.333 116.406 C 15.333 116.516,15.031 117.409,14.662 118.389 C 11.680 126.302,11.591 135.845,14.436 142.653 C 14.765 143.440,15.143 144.436,15.277 144.867 C 17.091 150.709,26.554 159.340,34.250 162.170 C 55.472 169.974,76.849 160.960,83.417 141.440 L 84.250 138.963 85.750 138.425 C 92.420 136.034,96.509 131.247,97.331 124.866 C 98.079 119.059,95.061 115.171,89.012 114.149 C 87.964 113.972,86.652 113.713,86.095 113.573 C 84.276 113.118,81.419 112.286,81.292 112.175 C 81.014 111.935,83.165 107.097,84.668 104.583 C 88.370 98.388,85.147 91.976,77.167 89.661 C 75.570 89.198,71.810 89.060,70.167 89.405 M120.040 89.429 C 111.539 91.291,108.027 98.079,112.022 104.927 C 112.869 106.380,115.422 111.975,115.292 112.093 C 114.972 112.383,109.616 113.762,107.582 114.079 C 94.648 116.093,96.689 133.119,110.488 138.314 L 112.227 138.969 112.947 141.193 C 118.688 158.909,137.348 168.491,156.833 163.727 C 158.162 163.403,159.511 163.027,159.831 162.893 C 160.152 162.760,160.747 162.575,161.155 162.484 C 162.653 162.148,166.722 160.110,169.058 158.524 C 169.686 158.098,170.322 157.675,170.471 157.583 C 173.432 155.770,178.214 150.499,180.034 147.042 C 184.478 138.602,185.339 130.092,182.684 120.865 C 181.735 117.569,178.931 111.263,178.058 110.462 C 177.832 110.254,177.209 109.446,176.675 108.667 C 167.447 95.204,151.964 89.377,137.443 93.900 L 136.135 94.307 134.702 93.247 C 130.144 89.877,124.594 88.431,120.040 89.429 M125.500 96.974 C 128.456 97.754,131.475 99.357,133.667 101.311 L 134.417 101.980 133.917 102.901 C 133.605 103.475,132.349 104.935,130.577 106.785 C 129.014 108.416,127.374 110.143,126.931 110.623 C 124.029 113.766,120.229 112.799,118.593 108.500 C 118.001 106.945,116.463 103.806,115.491 102.170 C 114.678 100.802,114.432 99.300,114.825 98.107 C 115.286 96.710,121.857 96.012,125.500 96.974 M79.808 97.154 C 82.325 97.770,82.603 99.440,80.718 102.628 C 79.690 104.367,78.837 106.116,77.927 108.354 C 75.939 113.240,72.858 113.881,69.156 110.178 C 65.570 106.591,62.881 103.670,62.493 102.937 L 62.093 102.183 62.505 101.734 C 66.227 97.677,73.779 95.678,79.808 97.154 M152.883 97.319 C 170.959 100.960,183.551 121.804,178.320 139.425 C 177.889 140.876,177.941 140.841,174.422 142.016 C 153.627 148.959,136.336 140.261,127.175 118.249 C 126.332 116.225,126.326 116.302,127.375 115.831 C 128.958 115.122,137.022 106.722,137.946 104.820 C 138.784 103.095,139.081 100.685,138.672 98.921 C 138.484 98.109,138.478 98.113,140.399 97.661 C 144.319 96.738,149.319 96.602,152.883 97.319 M145.833 101.887 C 142.696 102.623,141.928 104.525,144.010 106.406 C 147.438 109.503,155.446 108.965,155.128 105.660 C 154.885 103.125,149.638 100.995,145.833 101.887 M119.197 116.949 C 121.685 118.303,121.849 119.289,120.846 126.820 C 119.922 133.755,119.959 133.710,116.083 132.589 C 111.050 131.134,107.265 127.967,104.749 123.103 C 103.655 120.990,103.662 121.074,104.502 120.121 C 105.397 119.103,106.205 118.754,108.600 118.346 C 110.727 117.985,112.872 117.459,115.083 116.758 C 116.755 116.228,117.976 116.285,119.197 116.949 M82.217 117.070 C 84.067 117.631,87.283 118.355,88.917 118.580 C 90.594 118.810,92.500 120.154,92.500 121.107 C 92.500 122.015,90.549 125.331,88.863 127.288 C 86.279 130.289,80.717 133.167,77.500 133.167 C 76.581 133.167,76.409 132.588,75.643 126.917 C 74.710 120.015,74.741 119.482,76.163 117.939 C 77.651 116.326,79.084 116.120,82.217 117.070 M58.217 118.671 C 63.208 119.395,70.419 121.469,70.578 122.227 C 70.619 122.423,70.950 124.871,71.313 127.667 C 71.676 130.462,72.100 133.125,72.254 133.583 C 73.150 136.243,75.357 138.325,78.194 139.186 C 79.528 139.592,79.490 139.440,78.745 141.370 C 73.344 155.355,59.187 162.652,42.932 159.829 C 33.021 158.108,23.961 151.847,19.986 143.972 L 19.489 142.987 20.100 141.452 C 26.691 124.904,41.238 116.210,58.217 118.671 M332.370 131.377 C 332.007 131.764,330.333 135.488,330.333 135.909 C 330.333 136.038,329.896 137.179,329.363 138.446 C 327.065 143.898,326.991 144.242,327.945 144.993 C 328.830 145.689,330.667 145.126,330.667 144.159 C 330.667 144.077,330.847 143.614,331.068 143.130 C 331.288 142.646,331.880 141.237,332.383 140.000 C 332.886 138.762,333.686 136.813,334.160 135.667 C 335.550 132.307,335.368 131.000,333.511 131.000 C 332.910 131.000,332.641 131.089,332.370 131.377 M279.871 131.519 C 276.990 131.998,275.141 134.441,276.679 135.735 C 277.521 136.443,278.396 136.344,279.482 135.417 C 280.861 134.240,282.890 134.649,282.187 135.962 C 282.001 136.309,279.844 137.969,279.095 138.341 C 277.054 139.355,275.622 142.296,276.418 143.837 C 276.828 144.629,277.048 144.667,281.247 144.667 L 285.182 144.667 285.591 144.258 C 286.184 143.664,286.171 142.476,285.564 141.913 C 285.153 141.533,284.997 141.506,282.865 141.463 L 280.603 141.417 282.281 140.293 C 285.017 138.460,285.667 137.536,285.667 135.475 C 285.667 132.530,283.340 130.941,279.871 131.519 M305.553 131.535 C 304.221 132.322,302.691 133.141,302.364 133.243 C 300.361 133.865,300.274 136.684,302.250 136.940 C 302.782 137.009,303.110 136.923,303.875 136.512 L 304.833 135.997 304.833 139.848 C 304.833 143.474,304.853 143.727,305.178 144.183 C 305.652 144.848,306.960 144.889,307.591 144.258 L 308.000 143.848 308.000 138.100 C 308.000 132.378,307.998 132.350,307.625 131.916 C 307.181 131.399,306.114 131.204,305.553 131.535 M343.800 131.518 C 341.697 131.816,340.167 133.078,340.167 134.513 C 340.167 136.184,341.732 136.770,343.095 135.609 C 344.313 134.573,345.139 134.389,345.802 135.006 C 346.581 135.732,345.411 137.089,342.929 138.338 C 341.248 139.184,340.269 140.760,340.258 142.640 C 340.246 144.738,340.075 144.667,345.109 144.667 L 349.182 144.667 349.591 144.258 C 350.181 143.668,350.166 142.545,349.561 141.939 C 349.129 141.508,349.080 141.500,346.874 141.500 C 344.277 141.500,344.271 141.488,346.208 140.235 C 348.830 138.538,349.668 137.382,349.664 135.465 C 349.658 132.622,347.284 131.024,343.800 131.518 M368.633 131.518 C 366.553 131.813,365.000 133.079,365.000 134.481 C 365.000 136.165,366.567 136.768,367.928 135.609 C 369.354 134.395,371.000 134.375,371.000 135.571 C 371.000 136.065,368.631 138.167,368.073 138.167 C 367.771 138.167,366.271 139.449,365.861 140.058 C 364.814 141.614,364.722 143.693,365.665 144.453 C 365.847 144.600,367.039 144.658,369.966 144.661 L 374.015 144.667 374.424 144.258 C 375.020 143.662,375.004 142.476,374.392 141.909 C 373.970 141.517,373.858 141.500,371.705 141.500 C 369.111 141.500,369.104 141.488,371.041 140.235 C 373.664 138.538,374.502 137.382,374.497 135.465 C 374.491 132.622,372.117 131.024,368.633 131.518 M196.586 131.861 C 195.721 132.541,195.667 132.909,195.667 138.083 C 195.667 144.916,195.494 144.667,200.231 144.666 C 203.973 144.665,204.355 144.583,205.369 143.570 C 206.816 142.123,206.904 139.651,205.555 138.379 L 204.980 137.837 205.448 137.224 C 205.863 136.681,205.923 136.444,205.974 135.173 L 206.031 133.735 205.333 132.853 C 204.317 131.568,204.065 131.500,200.278 131.500 C 197.214 131.500,197.021 131.519,196.586 131.861 M209.063 131.818 C 208.227 132.328,208.167 132.753,208.167 138.125 C 208.167 145.085,207.828 144.667,213.463 144.667 L 217.275 144.667 217.675 144.241 C 218.262 143.616,218.232 142.599,217.612 142.066 C 217.162 141.679,217.063 141.667,214.324 141.667 L 211.500 141.667 211.500 140.583 L 211.500 139.500 213.894 139.500 C 216.788 139.500,217.167 139.335,217.167 138.071 C 217.167 136.771,216.932 136.667,214.000 136.667 L 211.500 136.667 211.500 135.583 L 211.500 134.500 214.341 134.500 C 217.654 134.500,218.000 134.358,218.000 133.000 C 218.000 132.498,217.892 132.210,217.591 131.909 L 217.182 131.500 213.383 131.501 C 209.942 131.501,209.534 131.531,209.063 131.818 M221.748 132.024 C 220.955 132.720,220.692 133.411,220.489 135.322 C 220.396 136.199,220.173 138.117,219.993 139.583 C 219.420 144.255,219.560 144.833,221.270 144.833 C 222.919 144.833,222.948 144.763,223.418 139.583 C 223.718 136.291,223.740 136.143,223.879 136.500 C 223.933 136.637,224.283 138.325,224.657 140.250 C 225.483 144.500,225.690 144.833,227.506 144.833 C 229.530 144.833,229.756 144.511,230.485 140.583 C 231.229 136.575,231.499 135.538,231.500 136.681 C 231.501 137.127,231.929 141.733,232.102 143.156 C 232.257 144.426,232.693 144.833,233.897 144.833 C 235.816 144.833,235.821 144.774,234.735 135.667 C 234.340 132.354,233.714 131.500,231.680 131.500 C 229.580 131.500,229.046 132.199,228.416 135.773 C 228.176 137.135,227.890 138.734,227.781 139.325 L 227.583 140.400 226.967 136.878 C 226.130 132.091,225.742 131.500,223.431 131.500 C 222.451 131.500,222.287 131.551,221.748 132.024 M242.481 131.994 L 241.987 132.487 242.035 138.175 L 242.083 143.863 242.551 144.265 C 243.240 144.857,244.508 144.838,244.988 144.228 C 245.295 143.837,245.333 143.560,245.333 141.728 C 245.333 139.410,245.385 139.334,246.311 140.295 C 250.922 145.082,250.447 144.667,251.317 144.667 C 253.376 144.667,253.522 142.966,251.641 140.899 C 250.092 139.197,249.077 137.964,249.131 137.850 C 249.157 137.795,250.009 136.867,251.023 135.787 C 253.170 133.501,253.385 132.984,252.586 132.034 C 252.196 131.571,252.032 131.500,251.342 131.500 L 250.546 131.500 248.565 133.527 C 247.475 134.642,246.418 135.730,246.216 135.944 C 245.459 136.746,245.333 136.521,245.333 134.356 C 245.333 131.873,245.134 131.500,243.808 131.500 C 243.106 131.500,242.896 131.578,242.481 131.994 M256.276 131.999 C 255.476 132.702,255.424 132.902,254.759 137.833 C 253.876 144.387,253.944 144.833,255.833 144.833 C 256.968 144.833,257.412 144.403,257.564 143.156 C 257.738 141.724,258.166 137.125,258.166 136.675 C 258.167 135.678,258.494 136.819,259.071 139.833 C 259.927 144.305,260.249 144.834,262.114 144.833 C 263.853 144.832,264.500 144.116,264.843 141.816 C 265.405 138.047,265.980 135.479,265.995 136.667 C 266.002 137.144,266.437 141.798,266.602 143.156 C 266.756 144.417,267.195 144.833,268.372 144.833 C 270.255 144.833,270.402 143.839,269.490 137.262 C 268.783 132.164,268.402 131.500,266.180 131.500 C 263.951 131.500,263.573 132.080,262.747 136.766 C 262.409 138.682,262.118 140.266,262.100 140.286 C 262.082 140.305,261.816 138.843,261.509 137.036 C 260.686 132.196,260.254 131.500,258.076 131.500 C 256.946 131.500,256.798 131.541,256.276 131.999 M291.444 131.749 C 287.684 133.181,286.697 140.625,289.880 143.541 C 292.544 145.982,297.362 145.022,298.867 141.750 C 299.451 140.480,299.444 135.846,298.856 134.545 C 297.763 132.127,294.090 130.741,291.444 131.749 M314.394 131.682 C 310.498 132.811,309.908 138.439,313.523 139.994 C 314.282 140.321,314.614 140.361,316.103 140.306 C 318.797 140.206,317.571 141.073,314.661 141.326 C 312.373 141.525,311.654 142.075,311.909 143.434 C 312.358 145.826,319.004 144.807,320.719 142.083 C 322.369 139.460,322.043 134.595,320.085 132.626 C 319.086 131.622,316.234 131.148,314.394 131.682 M355.176 131.843 C 353.982 132.385,352.998 133.298,352.547 134.282 C 351.756 136.011,351.726 140.206,352.494 141.941 C 354.289 145.999,361.333 145.760,362.789 141.592 C 363.278 140.191,363.215 135.708,362.689 134.545 C 361.544 132.013,357.784 130.660,355.176 131.843 M380.008 131.844 C 378.811 132.389,377.831 133.299,377.381 134.282 C 376.589 136.011,376.560 140.206,377.327 141.941 C 379.123 146.002,386.166 145.763,387.623 141.592 C 388.106 140.208,388.049 135.703,387.533 134.583 C 386.336 131.982,382.650 130.640,380.008 131.844 M202.167 134.716 C 202.505 134.887,202.583 135.050,202.583 135.583 C 202.583 136.447,202.162 136.661,200.458 136.664 L 199.167 136.667 199.167 135.583 L 199.167 134.500 200.458 134.502 C 201.169 134.504,201.938 134.600,202.167 134.716 M294.674 134.921 C 296.222 135.721,296.150 140.773,294.582 141.428 C 292.871 142.143,291.678 141.051,291.535 138.641 C 291.354 135.592,292.757 133.929,294.674 134.921 M317.130 134.922 C 319.160 135.734,318.619 137.333,316.315 137.333 C 314.071 137.333,314.046 134.838,316.288 134.681 C 316.401 134.673,316.780 134.781,317.130 134.922 M358.635 135.004 C 360.126 135.913,360.193 140.320,358.731 141.277 C 357.065 142.369,355.517 141.156,355.368 138.641 C 355.183 135.515,356.700 133.825,358.635 135.004 M383.468 135.004 C 384.959 135.913,385.027 140.320,383.565 141.277 C 381.899 142.369,380.351 141.156,380.201 138.641 C 380.016 135.515,381.534 133.825,383.468 135.004 M66.672 138.840 C 62.513 140.335,59.170 145.580,61.128 147.538 C 63.131 149.541,68.744 146.308,70.447 142.171 C 71.608 139.348,69.770 137.726,66.672 138.840 M202.657 139.575 C 203.000 139.885,203.119 140.731,202.872 141.100 C 202.602 141.506,201.954 141.667,200.594 141.667 L 199.167 141.667 199.167 140.397 L 199.167 139.127 200.741 139.196 C 201.975 139.250,202.388 139.331,202.657 139.575 M170.333 151.719 C 170.333 151.748,170.090 151.991,169.792 152.260 L 169.250 152.750 169.740 152.208 C 170.196 151.703,170.333 151.590,170.333 151.719 M87.666 186.229 C 87.895 186.363,88.114 186.441,88.153 186.403 C 88.256 186.300,88.131 186.221,87.667 186.097 L 87.250 185.986 87.666 186.229 M88.425 186.655 C 88.512 186.740,88.808 186.857,89.083 186.914 L 89.583 187.019 89.167 186.765 C 88.703 186.483,88.168 186.404,88.425 186.655 M96.708 188.948 C 96.869 188.990,97.131 188.990,97.292 188.948 C 97.452 188.906,97.321 188.872,97.000 188.872 C 96.679 188.872,96.548 188.906,96.708 188.948 " stroke="none" fill="#05573d" fill-rule="evenodd"></path><path id="path4" d="M94.754 6.530 C 90.770 6.776,86.555 7.907,82.958 9.695 C 82.248 10.048,81.667 10.296,81.667 10.245 C 81.667 10.195,81.573 10.235,81.458 10.334 C 81.344 10.434,80.688 10.831,80.000 11.218 C 78.748 11.922,76.532 13.537,74.500 15.226 C 71.383 17.817,66.832 23.480,65.439 26.500 C 64.403 28.748,63.075 32.079,62.483 33.917 C 62.129 35.017,61.781 36.095,61.711 36.313 C 61.622 36.587,61.099 36.974,60.000 37.574 C 59.129 38.051,55.904 39.889,52.833 41.661 C 49.762 43.432,45.038 46.158,42.333 47.718 C 39.629 49.278,36.292 51.188,34.917 51.964 C 29.297 55.133,27.294 57.101,25.817 60.904 C 24.818 63.477,24.827 63.265,24.874 83.794 L 24.917 102.506 26.167 101.402 C 30.823 97.292,36.097 94.526,41.672 93.271 L 43.417 92.878 43.388 89.314 C 43.373 87.354,43.308 84.227,43.245 82.366 L 43.129 78.982 42.623 79.032 C 42.126 79.082,42.097 79.139,41.160 81.806 C 39.886 85.435,39.216 86.167,37.167 86.167 C 35.175 86.167,33.836 84.782,33.831 82.717 C 33.828 81.669,33.631 82.255,38.686 68.250 C 41.976 59.133,42.174 58.759,44.227 57.754 C 47.987 55.914,51.896 57.657,53.489 61.883 L 53.664 62.349 54.374 61.946 C 58.336 59.694,62.733 57.471,62.808 57.683 C 63.352 59.222,66.173 64.101,67.079 65.068 C 67.448 65.463,68.237 66.369,68.833 67.081 C 69.429 67.794,70.554 68.969,71.333 69.694 L 72.750 71.010 72.760 74.547 C 72.774 79.607,73.599 82.382,75.979 85.377 C 81.300 92.073,88.877 92.511,93.035 86.363 C 94.028 84.894,95.629 82.887,97.228 81.104 L 98.406 79.791 99.297 80.771 C 101.103 82.757,102.692 84.717,103.648 86.140 C 107.586 91.995,114.002 92.276,119.518 86.833 C 123.498 82.906,124.953 77.502,123.822 70.844 L 123.477 68.813 124.447 67.716 C 127.866 63.848,130.674 59.373,131.383 56.662 C 131.465 56.348,131.714 56.446,134.554 57.917 C 137.619 59.504,137.639 59.512,138.359 59.332 C 138.850 59.209,142.123 59.167,148.500 59.200 L 157.917 59.250 158.704 59.713 C 161.246 61.207,160.908 64.731,158.106 65.958 C 157.782 66.100,156.672 66.167,154.648 66.167 L 151.667 66.167 151.667 67.146 C 151.667 67.969,151.760 68.281,152.244 69.085 C 153.650 71.420,153.691 71.950,153.333 83.262 C 153.168 88.480,153.054 92.772,153.080 92.800 C 153.106 92.827,153.905 93.027,154.855 93.244 C 160.342 94.498,166.337 97.666,170.515 101.520 C 170.653 101.646,170.970 101.934,171.220 102.158 L 171.675 102.566 171.626 83.158 C 171.571 61.285,171.676 63.047,170.244 60.083 C 168.610 56.700,166.945 55.164,161.532 52.042 C 159.452 50.842,155.650 48.646,153.083 47.162 C 144.619 42.268,141.130 40.253,137.167 37.967 C 135.012 36.725,132.890 35.493,132.449 35.229 C 131.660 34.757,131.640 34.723,131.007 32.833 C 130.285 30.677,129.510 28.951,128.274 26.750 C 127.811 25.925,127.423 25.134,127.413 24.991 C 127.315 23.667,121.185 16.564,118.038 14.128 C 110.837 8.555,103.058 6.016,94.754 6.530 M100.620 11.248 C 107.196 12.183,113.141 15.255,118.171 20.317 C 131.034 33.259,132.541 52.018,121.706 64.325 L 121.054 65.066 120.318 64.471 C 117.215 61.956,115.248 61.984,107.151 64.659 C 101.263 66.605,100.541 66.942,99.149 68.397 L 98.434 69.145 97.336 68.114 C 95.896 66.761,95.665 66.659,89.335 64.586 C 81.132 61.898,78.881 62.037,75.555 65.437 L 74.361 66.659 73.100 65.319 C 70.772 62.844,68.499 59.420,67.247 56.500 C 58.053 35.066,77.991 8.031,100.620 11.248 M74.881 46.772 C 73.206 47.598,72.972 51.798,74.424 54.976 C 76.571 59.678,80.282 59.693,80.468 55.000 C 80.658 50.235,77.447 45.507,74.881 46.772 M119.417 46.733 C 117.400 47.620,115.542 51.744,115.697 54.989 C 116.035 62.056,122.875 57.682,122.878 50.398 C 122.879 47.350,121.452 45.838,119.417 46.733 M46.767 65.265 C 46.412 66.391,46.436 66.430,47.132 65.862 C 47.645 65.443,47.667 65.383,47.489 64.875 C 47.228 64.125,47.106 64.191,46.767 65.265 M88.113 68.763 C 94.074 70.727,94.445 70.924,95.288 72.560 C 96.264 74.455,95.835 76.306,93.953 78.324 C 92.705 79.662,90.562 82.343,89.645 83.714 C 87.144 87.454,83.720 87.360,79.968 83.449 C 76.659 79.997,75.867 71.247,78.610 68.423 C 80.473 66.505,81.356 66.537,88.113 68.763 M116.750 67.392 C 119.066 68.473,119.954 70.894,119.785 75.667 C 119.593 81.102,116.401 85.598,112.216 86.327 C 109.925 86.726,108.818 86.101,106.917 83.333 C 105.737 81.616,104.274 79.800,102.875 78.315 C 101.106 76.438,100.667 74.640,101.502 72.698 C 102.233 70.999,102.667 70.760,108.627 68.784 C 114.595 66.804,115.249 66.692,116.750 67.392 M145.044 92.453 C 145.297 92.491,145.672 92.490,145.877 92.451 C 146.082 92.411,145.875 92.380,145.417 92.381 C 144.958 92.382,144.791 92.415,145.044 92.453 M149.125 92.451 C 149.331 92.491,149.669 92.491,149.875 92.451 C 150.081 92.411,149.912 92.379,149.500 92.379 C 149.087 92.379,148.919 92.411,149.125 92.451 M115.750 147.833 C 115.892 148.108,116.046 148.333,116.092 148.333 C 116.138 148.333,116.059 148.108,115.917 147.833 C 115.774 147.558,115.621 147.333,115.575 147.333 C 115.529 147.333,115.608 147.558,115.750 147.833 M116.519 149.125 C 116.727 149.469,117.301 150.301,117.795 150.974 C 118.288 151.647,118.667 152.215,118.637 152.236 C 118.608 152.258,118.283 152.451,117.917 152.666 C 117.550 152.880,115.803 153.962,114.034 155.070 C 112.265 156.177,110.015 157.555,109.034 158.131 C 108.053 158.708,106.875 159.432,106.417 159.741 C 102.176 162.599,101.352 162.917,98.167 162.917 C 95.786 162.917,95.733 162.909,94.606 162.375 C 93.140 161.681,93.135 161.682,93.468 162.655 C 94.219 164.845,95.947 166.061,98.309 166.061 C 100.465 166.061,101.503 165.402,103.378 162.841 C 105.628 159.769,110.264 162.064,109.344 165.794 C 107.607 172.830,96.045 175.180,90.014 169.723 C 87.235 167.208,86.091 164.362,85.880 159.436 L 85.780 157.121 83.932 155.920 C 81.450 154.307,77.893 152.164,77.722 152.178 C 77.646 152.184,77.134 152.722,76.585 153.374 C 73.239 157.348,67.749 160.975,62.262 162.838 C 60.962 163.279,60.947 163.291,61.345 163.537 C 61.833 163.839,69.569 168.322,75.667 171.836 C 78.096 173.236,81.471 175.188,83.167 176.173 C 93.968 182.447,94.851 182.813,98.750 182.625 C 102.104 182.462,103.215 182.000,110.833 177.597 C 126.757 168.393,133.486 164.517,134.623 163.895 C 135.679 163.316,135.687 163.275,134.792 163.011 C 127.997 161.008,120.961 155.707,117.022 149.624 C 116.254 148.438,115.872 148.059,116.519 149.125 " stroke="none" fill="#f31e5e" fill-rule="evenodd"></path></g></svg>