<svg id="svg" version="1.1" xmlns="http://www.w3.org/2000/svg" xmlns:xlink="http://www.w3.org/1999/xlink" width="400" height="400" viewBox="0, 0, 400,400"><g id="svgg"><path id="path0" d="M208.917 187.164 C 207.922 187.657,207.999 187.484,205.338 195.167 C 204.528 197.504,203.291 200.954,202.588 202.833 C 201.165 206.642,200.478 208.590,200.209 209.583 C 200.014 210.301,198.431 214.700,198.169 215.250 C 197.808 216.008,195.454 222.635,195.327 223.250 C 195.251 223.617,195.071 224.196,194.928 224.536 C 194.391 225.810,194.820 227.546,195.779 227.983 C 196.039 228.101,197.675 228.166,200.383 228.166 C 205.242 228.165,205.336 228.140,206.083 226.667 C 206.867 225.119,206.603 225.168,214.250 225.168 C 221.878 225.168,221.656 225.128,222.369 226.618 C 223.089 228.123,223.249 228.167,228.030 228.167 C 235.270 228.167,235.195 228.396,231.322 218.000 C 230.758 216.487,230.159 214.761,229.991 214.164 C 229.721 213.202,228.932 211.013,227.171 206.333 C 226.878 205.554,225.937 202.892,225.080 200.417 C 223.690 196.401,222.534 193.211,221.061 189.324 C 220.108 186.810,220.171 186.833,214.168 186.833 C 209.934 186.834,209.532 186.859,208.917 187.164 M250.700 187.022 C 238.212 188.330,229.848 198.841,231.753 210.833 C 232.949 218.369,237.126 223.324,245.250 226.849 C 247.998 228.041,261.521 228.851,262.368 227.875 C 262.711 227.480,264.053 217.161,263.836 216.591 L 263.686 216.197 257.218 216.130 L 250.750 216.063 249.387 215.611 C 247.047 214.836,245.603 213.527,244.403 211.092 L 243.750 209.767 243.750 207.592 L 243.750 205.417 244.492 203.861 C 245.277 202.217,246.612 200.729,247.734 200.249 C 250.551 199.043,250.868 199.000,256.899 199.000 C 261.659 199.000,262.137 198.974,262.368 198.708 C 262.545 198.505,262.810 196.932,263.246 193.500 C 263.589 190.796,263.908 188.348,263.954 188.060 C 264.148 186.847,264.061 186.830,257.708 186.855 C 254.615 186.868,251.461 186.943,250.700 187.022 M267.767 187.006 C 266.455 187.399,266.108 188.138,265.670 191.478 C 264.720 198.708,264.839 198.879,270.945 199.000 C 277.146 199.123,276.500 197.432,276.500 213.536 C 276.500 229.731,275.855 228.160,282.500 228.164 C 287.069 228.166,287.399 228.099,288.122 227.017 L 288.500 226.451 288.501 213.850 C 288.502 200.113,288.491 200.278,289.452 199.545 L 290.056 199.083 293.766 199.000 C 298.971 198.883,298.758 199.094,299.513 193.316 C 300.161 188.356,299.976 187.546,298.076 187.018 C 297.272 186.795,268.511 186.784,267.767 187.006 M118.167 199.403 C 114.957 199.979,114.653 200.218,114.679 202.150 C 114.695 203.290,114.824 203.631,116.051 205.778 C 116.583 206.710,117.427 208.434,117.926 209.611 C 119.621 213.611,120.196 214.367,121.917 214.852 C 124.069 215.458,125.239 214.945,127.819 212.265 C 128.881 211.161,130.621 209.356,131.685 208.254 C 134.676 205.157,134.760 204.857,133.025 203.437 C 128.900 200.062,123.169 198.506,118.167 199.403 M143.303 199.736 C 141.760 199.972,139.032 200.607,138.711 200.806 C 138.574 200.890,138.563 201.118,138.672 201.588 C 139.292 204.261,138.416 207.442,136.468 209.597 C 132.513 213.972,128.586 217.827,127.500 218.401 C 126.996 218.667,126.555 218.908,126.520 218.936 C 126.130 219.254,130.171 227.326,132.477 230.833 C 141.895 245.155,157.198 250.337,173.824 244.836 C 177.684 243.559,177.846 243.462,178.281 242.161 C 183.453 226.697,172.686 206.317,156.500 200.934 C 152.642 199.652,147.130 199.151,143.303 199.736 M150.069 204.583 C 154.152 205.448,156.370 208.074,154.511 209.842 C 151.995 212.235,144.655 211.040,143.073 207.979 C 141.805 205.527,145.669 203.651,150.069 204.583 M215.450 207.000 C 216.208 207.812,217.284 211.148,217.005 211.821 C 216.150 213.884,211.933 213.702,211.401 211.578 C 211.281 211.101,212.070 208.472,212.629 207.485 C 213.237 206.413,214.672 206.166,215.450 207.000 M114.754 219.491 C 112.894 220.110,110.261 220.742,108.102 221.087 C 106.154 221.398,105.476 221.710,104.534 222.732 C 103.683 223.656,103.685 223.544,104.490 225.218 C 107.233 230.926,112.784 235.117,118.450 235.758 L 119.473 235.873 119.826 235.181 C 120.212 234.424,121.524 225.329,121.519 223.436 C 121.512 220.084,118.407 218.274,114.754 219.491 M169.740 254.875 L 169.250 255.417 169.792 254.927 C 170.090 254.658,170.333 254.414,170.333 254.385 C 170.333 254.257,170.196 254.370,169.740 254.875 " stroke="none" fill="#04abeb" fill-rule="evenodd"></path><path id="path1" d="M94.000 113.685 C 84.856 114.720,76.028 120.627,70.489 129.417 C 62.355 142.325,63.270 157.309,72.820 167.606 C 74.443 169.355,74.256 169.334,75.682 167.935 C 78.984 164.697,81.101 164.542,88.564 166.988 C 91.380 167.911,93.800 168.667,93.942 168.667 C 94.497 168.667,96.575 169.936,97.482 170.828 L 98.436 171.768 99.385 170.824 C 100.648 169.567,101.760 169.005,105.109 167.930 C 106.653 167.434,109.096 166.648,110.536 166.183 C 115.006 164.739,117.652 164.986,120.432 167.107 C 121.145 167.650,121.118 167.663,122.355 166.125 C 125.159 162.636,126.917 159.204,127.987 155.129 C 133.443 134.347,114.587 111.354,94.000 113.685 M63.749 130.607 C 63.291 130.850,62.204 131.475,61.333 131.997 C 60.462 132.519,59.217 133.256,58.565 133.634 C 56.207 135.001,55.639 138.304,57.559 139.483 C 59.720 140.809,61.366 140.101,62.158 137.505 C 62.772 135.491,63.937 132.441,64.569 131.196 C 65.197 129.956,65.104 129.889,63.749 130.607 M32.861 148.506 C 32.096 148.961,31.428 149.333,31.376 149.333 C 31.324 149.333,31.049 149.509,30.766 149.724 C 30.482 149.939,29.762 150.349,29.167 150.636 C 26.568 151.887,23.367 154.957,21.544 157.944 C 21.065 158.730,20.713 159.440,20.763 159.520 C 20.812 159.601,20.769 159.667,20.667 159.667 C 20.564 159.667,20.527 159.742,20.583 159.833 C 20.640 159.925,20.607 160.000,20.510 160.000 C 20.413 160.000,20.350 160.056,20.370 160.125 C 20.390 160.194,20.159 160.925,19.857 161.750 C 18.520 165.399,18.610 163.270,18.641 190.484 L 18.667 212.719 19.781 211.151 C 21.213 209.136,22.540 207.506,23.771 206.250 L 24.750 205.250 24.835 185.750 L 24.919 166.250 25.378 164.784 C 26.619 160.815,28.751 158.175,32.473 156.000 L 34.327 154.917 34.330 153.818 C 34.332 153.214,34.383 151.583,34.443 150.193 C 34.507 148.713,34.490 147.669,34.401 147.672 C 34.318 147.675,33.625 148.050,32.861 148.506 M121.503 149.375 C 123.785 150.926,123.184 156.778,120.434 159.790 C 118.115 162.329,115.882 161.327,115.705 157.667 C 115.470 152.772,119.023 147.690,121.503 149.375 M76.805 149.402 C 77.496 149.760,78.751 151.181,79.258 152.182 C 82.169 157.927,79.671 163.756,75.964 159.868 C 72.185 155.906,72.872 147.368,76.805 149.402 M167.692 150.956 C 167.707 151.026,167.520 151.516,167.277 152.045 C 166.578 153.565,166.142 154.996,166.025 156.152 L 165.917 157.222 167.417 158.736 C 169.680 161.020,171.013 163.562,171.489 166.500 C 171.604 167.212,171.665 174.022,171.665 186.388 L 171.667 205.193 173.020 206.669 C 174.421 208.196,176.459 210.789,177.279 212.088 C 177.538 212.498,177.806 212.833,177.875 212.833 C 178.141 212.834,178.021 166.872,177.751 165.340 C 177.346 163.039,176.499 160.500,176.136 160.500 C 176.051 160.500,176.026 160.427,176.081 160.337 C 176.182 160.173,174.777 157.428,174.216 156.691 C 172.988 155.082,170.484 152.572,170.295 152.761 C 170.249 152.806,170.086 152.652,169.932 152.417 C 169.776 152.179,169.570 152.040,169.467 152.104 C 169.354 152.173,169.329 152.142,169.401 152.025 C 169.471 151.912,169.394 151.784,169.219 151.719 C 169.053 151.658,168.635 151.432,168.291 151.218 C 167.947 151.003,167.677 150.885,167.692 150.956 M131.337 159.375 C 129.893 162.839,128.245 165.941,127.418 166.750 C 127.231 166.933,126.742 167.530,126.331 168.077 C 125.920 168.623,125.102 169.584,124.513 170.211 L 123.442 171.352 123.763 172.968 C 125.056 179.488,123.370 185.921,119.381 189.681 C 113.832 194.913,107.459 194.512,103.589 188.688 C 102.436 186.953,98.714 182.500,98.417 182.500 C 98.145 182.500,94.269 187.160,93.001 189.012 C 88.832 195.098,81.268 194.686,76.051 188.089 C 73.567 184.947,72.767 182.290,72.763 177.165 L 72.761 173.580 71.620 172.582 C 70.993 172.033,69.903 170.913,69.198 170.094 C 68.493 169.274,67.617 168.291,67.250 167.908 C 66.446 167.070,64.171 163.287,63.332 161.394 L 62.727 160.027 61.822 160.524 C 58.098 162.569,53.836 164.833,53.708 164.833 C 53.623 164.833,53.450 164.519,53.323 164.135 C 51.595 158.899,44.093 158.127,41.620 162.932 C 41.380 163.397,36.500 176.714,36.500 176.902 C 36.500 176.953,35.900 178.651,35.167 180.677 C 33.289 185.864,33.406 187.437,35.750 188.518 C 38.230 189.663,39.836 188.431,41.188 184.346 L 42.076 181.667 42.597 181.667 L 43.118 181.667 43.224 184.458 C 43.283 185.994,43.380 189.113,43.441 191.391 L 43.551 195.531 44.024 195.437 C 47.911 194.659,54.477 195.164,58.981 196.587 L 60.326 197.012 61.621 196.035 C 67.692 191.452,74.383 190.507,80.170 193.415 C 86.094 196.390,87.858 201.931,84.619 207.386 C 83.426 209.394,81.024 214.596,81.212 214.764 C 81.525 215.042,86.786 216.405,88.583 216.674 C 95.691 217.736,98.767 222.522,96.941 229.678 C 95.585 234.995,91.386 239.179,85.335 241.244 L 84.254 241.613 83.410 244.098 C 82.127 247.880,80.551 250.941,78.448 253.740 L 77.704 254.731 79.810 255.999 C 80.969 256.697,82.786 257.835,83.848 258.528 L 85.780 259.788 85.880 262.102 C 86.089 266.975,87.221 269.827,89.933 272.312 C 95.978 277.851,107.594 275.546,109.344 268.460 C 110.264 264.731,105.628 262.436,103.378 265.508 C 101.503 268.069,100.465 268.728,98.309 268.728 C 95.947 268.728,94.219 267.512,93.468 265.322 C 93.151 264.396,93.223 264.352,94.215 264.858 C 97.480 266.524,102.690 265.524,106.173 262.564 C 106.314 262.444,107.414 261.762,108.617 261.048 C 109.821 260.334,112.077 258.947,113.631 257.966 C 115.184 256.985,116.934 255.905,117.519 255.566 C 118.105 255.227,118.611 254.927,118.645 254.899 C 118.679 254.871,118.298 254.301,117.798 253.632 C 115.741 250.883,114.214 247.764,112.849 243.529 L 112.241 241.641 110.511 240.988 C 96.855 235.835,94.569 218.792,107.260 216.753 C 109.496 216.394,114.791 215.076,115.287 214.756 C 115.384 214.693,113.257 209.978,112.485 208.544 C 110.839 205.491,110.661 205.083,110.388 203.750 C 109.765 200.713,111.078 197.124,113.526 195.170 C 119.588 190.330,127.660 190.590,134.663 195.848 L 136.174 196.983 136.879 196.734 C 140.888 195.318,146.658 194.692,151.171 195.183 C 152.098 195.284,152.898 195.324,152.950 195.272 C 153.129 195.093,153.633 176.484,153.490 175.351 C 153.321 174.015,153.004 173.088,152.243 171.704 C 151.767 170.838,151.667 170.482,151.667 169.661 L 151.667 168.667 154.883 168.667 C 158.061 168.667,158.108 168.661,158.765 168.235 C 160.699 166.982,161.009 164.548,159.444 162.921 C 158.364 161.798,158.555 161.815,147.165 161.842 L 137.008 161.867 135.712 161.123 C 134.456 160.401,131.721 159.000,131.568 159.000 C 131.527 159.000,131.423 159.169,131.337 159.375 M47.532 167.594 C 47.648 168.021,47.596 168.140,47.124 168.531 C 46.466 169.076,46.387 168.926,46.753 167.826 C 47.057 166.909,47.323 166.829,47.532 167.594 M80.174 169.930 C 75.759 171.845,75.838 181.944,80.303 186.412 C 83.811 189.923,87.239 189.903,89.614 186.359 C 90.146 185.566,91.332 184.034,92.249 182.954 C 93.166 181.875,94.233 180.619,94.621 180.162 C 96.223 178.272,96.151 175.845,94.440 174.027 C 92.760 172.242,81.980 169.146,80.174 169.930 M108.583 171.392 L 103.417 173.083 102.490 174.000 C 100.235 176.232,100.551 178.363,103.651 181.833 C 104.675 182.979,106.039 184.686,106.682 185.625 C 109.474 189.706,112.145 190.148,115.776 187.131 C 119.707 183.864,121.242 175.987,118.770 171.769 C 117.216 169.117,115.701 169.061,108.583 171.392 M305.293 187.070 C 304.358 187.404,303.881 187.768,303.375 188.533 L 302.917 189.226 302.867 207.154 C 302.814 226.455,302.790 225.893,303.714 226.946 C 304.680 228.045,305.160 228.159,308.833 228.161 C 312.668 228.164,313.416 227.956,314.281 226.650 L 314.750 225.941 314.799 208.096 C 314.826 198.280,314.804 189.938,314.749 189.556 C 314.604 188.534,313.566 187.415,312.458 187.086 C 311.333 186.752,306.217 186.741,305.293 187.070 M320.000 187.201 C 318.293 188.071,318.171 189.214,319.417 192.667 C 319.921 194.064,320.334 195.292,320.334 195.396 C 320.334 195.499,320.751 196.708,321.261 198.083 C 321.770 199.458,322.520 201.521,322.928 202.667 C 323.336 203.813,323.746 204.900,323.839 205.083 C 323.932 205.267,324.674 207.367,325.487 209.750 C 326.301 212.133,327.544 215.621,328.249 217.500 C 328.954 219.379,329.724 221.517,329.959 222.250 C 331.973 228.523,331.489 228.167,337.999 228.167 C 343.746 228.167,344.283 227.993,344.853 225.951 C 345.091 225.101,346.458 221.235,347.841 217.500 C 348.994 214.390,349.843 211.976,350.217 210.750 C 350.356 210.292,350.900 208.754,351.426 207.333 C 353.525 201.657,354.533 198.878,354.779 198.083 C 355.255 196.551,355.642 195.434,356.572 192.917 C 357.637 190.035,357.748 189.080,357.125 188.165 C 356.276 186.918,356.271 186.917,351.780 186.917 C 346.694 186.917,346.412 187.039,345.602 189.592 C 345.213 190.818,344.026 194.017,342.576 197.750 C 340.746 202.461,340.335 203.573,340.334 203.814 C 340.331 204.847,338.967 205.628,337.502 205.435 C 336.503 205.304,336.011 204.743,335.427 203.069 C 334.424 200.193,331.101 191.376,330.596 190.250 C 330.473 189.975,330.278 189.450,330.163 189.083 C 329.505 186.984,329.366 186.929,324.583 186.868 C 320.866 186.820,320.727 186.830,320.000 187.201 M363.990 187.058 C 362.952 187.342,362.254 187.875,361.709 188.803 L 361.250 189.583 361.198 207.000 C 361.140 226.642,361.092 225.777,362.309 226.989 C 363.520 228.194,363.247 228.167,374.150 228.167 C 384.628 228.167,384.358 228.188,385.466 227.254 C 386.764 226.160,387.865 220.259,387.109 218.453 C 386.212 216.313,385.718 216.167,379.377 216.167 C 373.226 216.167,373.333 216.190,373.333 214.833 C 373.333 213.481,373.249 213.500,379.180 213.500 L 384.287 213.500 384.935 213.066 C 386.352 212.116,386.652 211.389,387.091 207.839 C 387.544 204.180,387.170 202.915,385.353 201.966 L 384.462 201.500 379.220 201.500 C 373.194 201.500,373.333 201.529,373.333 200.277 C 373.333 198.947,373.111 199.000,378.658 198.999 C 385.974 198.998,386.358 198.763,387.010 193.886 C 387.598 189.483,387.306 188.386,385.250 187.276 C 384.432 186.835,365.518 186.641,363.990 187.058 M59.417 266.348 C 57.958 266.746,54.700 267.281,52.833 267.430 C 52.054 267.492,51.355 267.578,51.280 267.622 C 51.204 267.665,51.950 268.177,52.936 268.758 C 53.922 269.339,54.790 269.777,54.865 269.731 C 54.939 269.685,55.000 269.726,55.000 269.823 C 55.000 269.921,55.107 270.000,55.238 270.000 C 55.369 270.000,55.575 270.099,55.696 270.219 C 55.818 270.340,56.892 271.003,58.083 271.692 C 59.275 272.382,60.925 273.357,61.750 273.859 C 62.575 274.362,63.698 274.977,64.245 275.227 C 64.792 275.477,65.279 275.743,65.328 275.819 C 65.377 275.894,66.242 276.427,67.250 277.004 C 68.258 277.580,69.271 278.181,69.500 278.340 C 69.924 278.633,70.567 278.998,72.500 280.040 C 73.932 280.811,75.032 281.451,76.250 282.220 C 77.435 282.968,79.522 284.167,80.917 284.900 C 82.063 285.502,84.637 287.019,86.444 288.157 L 87.304 288.698 87.777 288.371 C 88.037 288.191,89.503 287.303,91.035 286.398 C 92.566 285.493,93.766 284.710,93.701 284.657 C 93.636 284.604,93.246 284.420,92.833 284.247 C 92.079 283.930,87.213 281.189,80.417 277.250 C 78.400 276.081,74.837 274.021,72.500 272.672 C 70.162 271.323,66.616 269.270,64.619 268.110 C 62.622 266.949,60.897 266.007,60.785 266.015 C 60.674 266.023,60.058 266.173,59.417 266.348 " stroke="none" fill="#f18827" fill-rule="evenodd"></path><path id="path2" d="M127.667 127.750 C 127.667 127.818,128.290 129.120,129.053 130.645 C 129.815 132.169,130.758 134.320,131.147 135.424 L 131.854 137.431 134.386 138.912 C 135.778 139.727,138.604 141.368,140.667 142.559 C 142.729 143.750,146.254 145.786,148.500 147.083 C 150.746 148.381,154.571 150.589,157.000 151.990 C 159.429 153.391,162.408 155.129,163.619 155.852 C 164.831 156.575,165.852 157.167,165.888 157.167 C 165.925 157.167,165.994 156.698,166.043 156.125 C 166.195 154.330,167.492 151.026,168.000 151.139 C 168.137 151.169,168.187 151.132,168.111 151.056 C 168.035 150.979,167.922 150.916,167.861 150.915 C 167.704 150.912,165.515 149.685,164.921 149.266 C 164.648 149.074,163.823 148.572,163.087 148.151 C 162.352 147.731,161.262 147.104,160.667 146.759 C 160.071 146.414,159.096 145.865,158.500 145.539 C 157.904 145.212,156.749 144.545,155.933 144.056 C 155.117 143.567,154.386 143.167,154.308 143.167 C 154.230 143.167,154.166 143.110,154.165 143.042 C 154.165 142.973,153.996 142.837,153.790 142.739 C 153.585 142.641,152.667 142.124,151.750 141.590 C 150.833 141.056,149.783 140.456,149.417 140.258 C 148.527 139.775,144.915 137.659,144.359 137.294 C 144.116 137.134,143.804 136.951,143.667 136.888 C 143.529 136.824,142.964 136.504,142.411 136.177 C 141.859 135.851,141.312 135.564,141.196 135.539 C 141.081 135.515,140.670 135.292,140.285 135.044 C 139.899 134.796,138.458 133.939,137.083 133.140 C 135.708 132.340,134.506 131.625,134.412 131.551 C 134.317 131.477,133.869 131.229,133.416 131.000 C 132.646 130.611,128.879 128.419,128.042 127.873 C 127.835 127.738,127.667 127.683,127.667 127.750 M56.252 135.100 C 55.795 135.411,55.326 135.667,55.210 135.667 C 55.095 135.667,55.000 135.742,55.000 135.833 C 55.000 135.925,54.944 135.988,54.875 135.974 C 54.668 135.930,54.150 136.193,52.750 137.053 C 50.944 138.164,47.326 140.265,46.000 140.975 C 45.404 141.293,43.350 142.483,41.435 143.618 C 39.520 144.753,37.870 145.697,37.768 145.716 C 37.667 145.735,37.546 145.790,37.500 145.839 C 37.454 145.889,36.768 146.297,35.976 146.748 L 34.535 147.567 34.413 151.124 C 34.347 153.080,34.329 154.718,34.373 154.762 C 34.418 154.807,36.434 153.704,38.852 152.311 C 41.271 150.918,45.387 148.546,48.000 147.041 C 50.612 145.535,54.337 143.392,56.277 142.279 C 60.062 140.107,60.069 140.101,58.900 139.940 C 56.667 139.634,55.896 137.961,56.874 135.542 C 57.357 134.344,57.358 134.345,56.252 135.100 M235.500 155.766 C 233.400 156.517,232.298 158.094,230.913 162.333 C 230.569 163.387,230.076 164.813,229.818 165.500 C 229.560 166.188,229.050 167.575,228.685 168.583 C 228.320 169.592,227.562 171.654,227.001 173.167 C 225.381 177.535,225.333 177.705,225.333 179.104 C 225.333 181.101,226.334 182.165,228.214 182.166 C 230.285 182.167,230.899 181.517,232.106 178.045 L 232.962 175.583 237.522 175.541 L 242.083 175.498 242.897 177.874 C 243.916 180.851,244.025 181.062,244.864 181.670 C 246.929 183.165,250.010 181.523,249.998 178.933 C 249.995 178.335,250.092 178.626,247.420 171.252 C 246.290 168.134,244.938 164.308,244.415 162.750 C 242.836 158.040,242.064 156.796,240.206 155.967 C 239.137 155.490,236.576 155.381,235.500 155.766 M198.544 156.260 C 198.145 156.499,197.656 156.993,197.419 157.398 L 197.000 158.113 197.000 169.000 L 197.000 179.887 197.421 180.606 C 198.604 182.625,201.679 182.733,202.958 180.801 L 203.417 180.109 203.467 176.138 L 203.517 172.167 203.967 172.173 C 204.603 172.181,205.040 172.468,205.776 173.361 C 206.128 173.789,207.092 174.879,207.917 175.783 C 208.742 176.687,209.740 177.799,210.135 178.255 C 213.519 182.161,214.803 182.888,216.633 181.932 C 219.000 180.695,218.967 178.191,216.550 175.634 C 215.830 174.873,214.868 173.802,214.412 173.254 C 213.956 172.706,212.848 171.481,211.948 170.533 C 210.526 169.032,210.342 168.773,210.532 168.537 C 210.652 168.389,211.617 167.363,212.676 166.258 C 219.162 159.493,219.297 159.253,217.803 157.073 C 216.205 154.742,213.549 155.527,210.736 159.162 C 210.560 159.389,210.071 159.926,209.649 160.356 C 209.227 160.786,207.996 162.121,206.914 163.323 C 205.624 164.754,204.797 165.538,204.515 165.597 C 203.398 165.829,203.500 166.189,203.500 162.037 C 203.500 158.528,203.476 158.222,203.143 157.534 C 202.361 155.920,200.139 155.304,198.544 156.260 M260.361 156.267 C 259.883 156.506,259.308 156.941,259.084 157.235 C 258.142 158.469,258.167 158.157,258.168 168.953 L 258.170 178.917 258.567 179.770 C 259.530 181.838,260.137 182.000,266.942 182.000 C 274.085 182.000,275.285 181.724,277.420 179.589 C 280.342 176.667,279.778 170.549,276.420 168.740 C 275.700 168.352,275.700 168.342,276.415 167.855 C 279.044 166.065,279.257 161.009,276.820 158.266 C 274.844 156.043,273.983 155.833,266.831 155.833 L 261.232 155.833 260.361 156.267 M289.790 156.325 C 288.254 157.299,288.333 156.612,288.333 169.000 C 288.333 179.566,288.342 179.864,288.671 180.509 C 289.844 182.807,293.249 182.781,294.403 180.465 L 294.838 179.592 294.831 168.960 C 294.826 161.292,294.770 158.201,294.631 157.872 C 293.830 155.982,291.504 155.238,289.790 156.325 M308.167 155.945 C 306.905 156.374,306.050 157.122,305.468 158.302 L 305.083 159.083 305.037 169.450 C 304.991 179.763,304.992 179.820,305.349 180.580 C 306.366 182.742,309.621 182.760,310.853 180.610 C 311.294 179.841,311.420 173.608,311.121 167.421 C 311.046 165.866,311.054 164.827,311.141 164.921 C 311.222 165.010,311.687 165.833,312.173 166.750 C 313.183 168.654,313.413 169.068,314.153 170.315 C 314.446 170.810,315.042 171.935,315.476 172.815 C 316.796 175.489,319.349 179.958,319.975 180.690 C 321.668 182.668,325.290 182.747,327.135 180.847 C 328.497 179.442,328.417 180.225,328.417 168.404 L 328.417 157.892 327.958 157.199 C 326.667 155.248,323.604 155.375,322.400 157.430 L 321.958 158.184 322.029 165.586 C 322.068 169.657,322.085 172.972,322.068 172.952 C 321.934 172.797,320.328 169.848,319.870 168.917 C 319.555 168.275,318.755 166.775,318.092 165.583 C 315.992 161.811,315.798 161.454,314.881 159.667 C 313.239 156.467,310.726 155.073,308.167 155.945 M341.410 155.944 C 340.817 156.066,339.458 157.226,339.097 157.917 C 338.756 158.572,338.750 158.767,338.750 169.000 L 338.750 179.417 339.301 180.210 C 339.635 180.691,340.193 181.200,340.718 181.500 L 341.583 181.997 348.727 181.998 C 355.818 182.000,355.876 181.997,356.535 181.627 C 358.576 180.480,358.438 177.393,356.300 176.357 C 355.593 176.015,355.339 176.000,350.281 176.000 L 345.000 176.000 345.000 173.833 L 345.000 171.667 349.708 171.664 C 354.885 171.662,354.886 171.661,355.720 170.627 C 356.743 169.357,356.371 167.212,354.998 166.476 C 354.476 166.196,353.981 166.167,349.711 166.167 L 345.000 166.167 345.000 164.000 L 345.000 161.833 350.215 161.833 C 355.294 161.833,355.448 161.824,356.163 161.458 C 358.277 160.379,358.562 157.787,356.722 156.384 L 356.110 155.917 348.930 155.895 C 344.981 155.883,341.597 155.905,341.410 155.944 M366.393 156.261 C 364.515 157.399,364.567 160.673,366.480 161.797 C 367.227 162.236,367.338 162.252,370.204 162.305 L 373.158 162.360 373.204 171.248 L 373.250 180.136 373.760 180.766 C 375.375 182.762,378.250 182.623,379.335 180.497 C 379.654 179.872,379.667 179.504,379.667 171.090 L 379.667 162.333 382.308 162.333 C 385.101 162.333,385.725 162.220,386.627 161.551 C 388.308 160.303,388.223 157.537,386.467 156.375 L 385.775 155.917 376.429 155.879 L 367.083 155.842 366.393 156.261 M271.183 162.211 C 271.731 162.583,272.000 163.172,272.000 163.997 C 272.000 165.784,271.499 166.029,267.625 166.128 L 264.667 166.204 264.667 164.005 L 264.667 161.807 267.708 161.862 C 270.280 161.908,270.817 161.962,271.183 162.211 M239.081 166.314 C 239.770 168.360,240.333 170.064,240.333 170.100 C 240.333 170.137,239.094 170.167,237.580 170.167 L 234.827 170.167 234.940 169.708 C 235.042 169.300,236.935 163.798,237.349 162.708 C 237.603 162.042,237.733 162.314,239.081 166.314 M271.418 171.407 C 273.031 172.081,273.142 175.110,271.578 175.763 C 271.155 175.940,270.203 176.000,267.839 176.000 L 264.667 176.000 264.667 173.583 L 264.667 171.167 267.755 171.167 C 270.066 171.167,270.989 171.227,271.418 171.407 M18.539 204.875 C 18.518 209.344,18.534 213.000,18.575 213.000 C 18.617 213.000,18.885 212.644,19.170 212.208 C 19.582 211.582,19.601 211.521,19.263 211.917 C 19.027 212.192,18.817 212.492,18.795 212.583 C 18.773 212.675,18.715 209.150,18.667 204.750 L 18.578 196.750 18.539 204.875 M72.917 199.337 C 69.397 199.783,65.011 201.841,62.848 204.062 L 62.113 204.817 62.515 205.566 C 63.215 206.872,70.216 214.085,71.295 214.613 C 74.015 215.943,76.480 214.659,77.834 211.206 C 78.220 210.222,79.029 208.479,79.632 207.333 C 81.909 203.007,81.833 203.181,81.833 202.255 C 81.833 201.067,81.557 200.347,81.021 200.141 C 79.263 199.462,75.148 199.054,72.917 199.337 M22.822 207.292 C 21.868 208.322,21.437 208.833,21.525 208.833 C 21.570 208.833,22.038 208.346,22.564 207.750 C 23.594 206.585,23.774 206.264,22.822 207.292 M78.196 219.238 C 76.173 219.896,74.976 221.513,74.982 223.580 C 74.988 225.300,76.282 234.452,76.616 235.136 L 76.917 235.750 77.948 235.711 C 83.314 235.509,89.572 230.658,92.233 224.639 L 92.650 223.694 92.166 223.025 C 91.899 222.657,91.356 222.166,90.960 221.933 C 90.218 221.498,89.922 221.421,86.667 220.815 C 85.612 220.619,83.775 220.165,82.583 219.805 C 80.023 219.033,79.167 218.922,78.196 219.238 M48.833 221.009 C 36.355 222.110,25.337 230.972,20.100 244.118 L 19.489 245.653 19.986 246.638 C 23.982 254.555,32.847 260.678,42.922 262.481 C 59.058 265.368,73.352 258.000,78.755 244.010 C 79.442 242.232,79.428 242.085,78.556 241.944 C 76.793 241.659,74.420 240.001,73.248 238.236 C 72.243 236.723,72.019 235.798,71.261 230.043 C 70.871 227.084,70.522 224.637,70.484 224.604 C 70.294 224.436,66.933 223.270,65.137 222.748 C 59.813 221.201,53.860 220.566,48.833 221.009 M69.949 241.493 C 72.014 242.751,70.076 247.111,66.381 249.522 C 62.247 252.220,59.167 250.356,61.186 246.378 C 62.983 242.838,67.775 240.167,69.949 241.493 M131.750 268.221 C 128.408 270.153,123.821 272.792,108.220 281.763 C 102.101 285.281,98.733 286.077,94.735 284.950 L 93.886 284.711 90.985 286.435 C 89.389 287.383,87.939 288.244,87.763 288.349 C 87.378 288.577,87.889 289.073,88.697 289.254 C 88.943 289.310,89.232 289.462,89.341 289.592 C 89.449 289.723,89.604 289.789,89.686 289.738 C 89.767 289.688,89.833 289.739,89.833 289.851 C 89.833 289.964,89.879 290.010,89.935 289.954 C 89.991 289.898,90.422 290.008,90.893 290.198 C 93.115 291.093,97.041 291.743,99.250 291.581 C 101.327 291.429,104.875 290.684,105.242 290.323 C 105.329 290.237,105.527 290.167,105.683 290.167 C 106.024 290.167,108.768 288.810,109.730 288.167 C 110.108 287.914,110.829 287.495,111.333 287.237 C 111.837 286.978,112.287 286.716,112.333 286.653 C 112.379 286.590,112.773 286.372,113.208 286.168 C 113.644 285.964,114.000 285.730,114.000 285.648 C 114.000 285.567,114.068 285.500,114.151 285.500 C 114.234 285.500,115.081 285.069,116.032 284.542 C 116.983 284.015,117.984 283.471,118.256 283.333 C 118.528 283.196,118.849 282.990,118.969 282.876 C 119.292 282.570,121.445 281.333,121.654 281.333 C 121.753 281.333,121.833 281.266,121.833 281.185 C 121.833 281.103,122.115 280.914,122.458 280.765 C 122.802 280.615,123.983 279.963,125.083 279.316 C 126.183 278.668,127.196 278.094,127.333 278.041 C 127.471 277.988,127.897 277.732,128.280 277.472 C 128.663 277.212,129.057 277.000,129.155 277.000 C 129.253 277.000,129.333 276.925,129.333 276.833 C 129.333 276.742,129.428 276.667,129.544 276.667 C 129.660 276.667,130.279 276.360,130.919 275.985 C 131.560 275.610,132.698 274.969,133.450 274.562 C 134.790 273.836,137.178 272.459,138.667 271.554 C 140.808 270.252,141.500 269.865,141.503 269.969 C 141.504 270.032,141.560 270.008,141.628 269.917 C 141.695 269.825,142.125 269.563,142.583 269.333 C 143.042 269.104,143.454 268.872,143.500 268.817 C 143.546 268.762,143.658 268.687,143.750 268.650 C 144.192 268.473,145.331 267.735,145.332 267.625 C 145.333 267.556,145.089 267.500,144.791 267.500 C 143.113 267.500,139.444 266.915,135.917 266.085 C 135.697 266.033,134.278 266.761,131.750 268.221 " stroke="none" fill="#2db471" fill-rule="evenodd"></path><path id="path3" d="M71.662 120.458 L 70.583 121.583 71.708 120.505 C 72.753 119.503,72.910 119.333,72.787 119.333 C 72.761 119.333,72.255 119.840,71.662 120.458 M122.167 120.552 C 122.167 120.581,122.410 120.825,122.708 121.094 L 123.250 121.583 122.760 121.042 C 122.304 120.537,122.167 120.423,122.167 120.552 M127.519 127.720 C 127.501 128.012,128.277 129.500,128.448 129.500 C 128.494 129.500,128.346 129.181,128.118 128.792 C 127.891 128.402,127.667 127.933,127.622 127.750 C 127.549 127.460,127.536 127.456,127.519 127.720 M55.921 135.090 C 55.373 135.393,54.899 135.740,54.867 135.862 C 54.831 135.998,54.861 136.019,54.946 135.917 C 55.021 135.825,55.445 135.563,55.887 135.333 C 56.329 135.104,56.769 134.823,56.866 134.708 C 57.090 134.442,57.098 134.438,55.921 135.090 M131.012 135.259 C 130.995 135.509,131.690 137.532,131.767 137.455 C 131.802 137.420,131.650 136.872,131.428 136.237 C 131.206 135.603,131.019 135.163,131.012 135.259 M52.958 136.762 C 52.335 137.100,52.373 137.241,53.000 136.917 C 53.275 136.774,53.500 136.623,53.500 136.579 C 53.500 136.472,53.482 136.478,52.958 136.762 M51.453 137.642 C 51.014 137.900,50.564 138.209,50.453 138.329 C 50.245 138.553,51.292 137.975,52.014 137.467 C 52.639 137.028,52.335 137.122,51.453 137.642 M46.136 140.672 C 45.187 141.173,45.208 141.383,46.159 140.905 C 46.938 140.513,47.180 140.323,46.875 140.341 C 46.806 140.345,46.474 140.494,46.136 140.672 M41.468 143.420 C 40.763 143.830,40.139 144.243,40.081 144.337 C 39.981 144.499,42.409 143.103,42.742 142.808 C 43.056 142.528,42.727 142.686,41.468 143.420 M37.838 145.493 C 37.703 145.579,37.634 145.689,37.684 145.739 C 37.734 145.789,37.919 145.721,38.096 145.587 C 38.447 145.321,38.233 145.244,37.838 145.493 M36.167 146.432 C 35.479 146.849,34.842 147.270,34.750 147.369 C 34.658 147.467,34.921 147.345,35.333 147.097 C 35.746 146.849,36.402 146.486,36.792 146.290 C 37.181 146.094,37.500 145.874,37.500 145.800 C 37.500 145.616,37.557 145.589,36.167 146.432 M26.167 152.514 L 25.417 153.194 26.208 152.577 C 26.902 152.036,27.108 151.832,26.958 151.834 C 26.935 151.834,26.579 152.140,26.167 152.514 M18.580 182.583 C 18.580 190.467,18.600 193.667,18.625 189.696 C 18.650 185.724,18.650 179.274,18.625 175.362 C 18.600 171.451,18.580 174.700,18.580 182.583 M121.302 191.846 C 114.888 192.787,110.356 196.922,110.294 201.891 C 110.265 204.163,110.432 204.636,112.788 208.959 C 113.318 209.931,115.372 214.696,115.288 214.758 C 114.864 215.074,109.670 216.393,107.427 216.753 C 101.901 217.641,99.055 220.831,99.103 226.083 C 99.166 232.818,103.356 238.289,110.523 240.993 L 112.227 241.636 112.947 243.859 C 119.359 263.646,141.571 272.853,162.833 264.536 C 164.745 263.789,168.551 261.674,169.902 260.610 C 170.261 260.327,170.764 259.980,171.021 259.839 C 173.452 258.505,178.287 253.021,180.137 249.500 C 185.209 239.847,185.510 229.334,181.011 218.917 C 180.457 217.633,180.002 216.533,180.002 216.472 C 179.998 216.231,178.130 213.076,177.921 212.959 C 177.798 212.890,177.270 212.190,176.746 211.403 C 172.467 204.972,165.712 199.538,158.958 197.094 C 151.856 194.524,143.454 194.386,136.879 196.731 L 136.174 196.983 134.632 195.834 C 130.434 192.707,125.498 191.231,121.302 191.846 M70.667 191.948 C 67.559 192.464,64.335 193.942,61.385 196.203 L 60.328 197.013 58.982 196.588 C 44.516 192.018,28.747 197.996,19.673 211.490 C 19.127 212.303,18.615 212.994,18.537 213.026 C 18.099 213.202,15.669 217.854,15.244 219.332 C 15.125 219.745,14.790 220.721,14.501 221.500 C 11.574 229.373,11.636 238.700,14.663 245.917 C 15.009 246.742,15.382 247.696,15.491 248.038 C 16.070 249.845,19.065 253.919,21.906 256.762 C 25.426 260.284,31.867 264.405,34.691 264.941 C 34.998 264.999,35.325 265.103,35.417 265.171 C 35.508 265.239,36.225 265.489,37.008 265.726 C 57.433 271.907,77.066 262.756,83.409 244.098 L 84.254 241.613 85.382 241.232 C 99.364 236.516,102.088 218.953,89.167 216.824 C 86.568 216.396,81.540 215.096,81.211 214.767 C 81.020 214.576,83.018 210.185,84.594 207.333 C 86.531 203.829,86.705 201.048,85.178 198.023 C 83.080 193.867,76.273 191.017,70.667 191.948 M79.167 199.662 C 81.621 200.198,81.833 200.405,81.833 202.255 C 81.833 203.181,81.909 203.007,79.632 207.333 C 79.029 208.479,78.220 210.222,77.834 211.206 C 76.480 214.659,74.015 215.943,71.295 214.613 C 70.216 214.085,63.215 206.872,62.515 205.566 L 62.113 204.817 62.848 204.062 C 66.572 200.239,73.390 198.400,79.167 199.662 M124.492 199.425 C 127.962 200.083,132.018 202.138,133.985 204.233 L 134.386 204.661 134.071 205.372 C 133.774 206.042,133.146 206.734,127.744 212.344 C 125.245 214.938,124.050 215.453,121.917 214.852 C 120.196 214.367,119.621 213.611,117.926 209.611 C 117.427 208.434,116.583 206.710,116.051 205.778 C 114.627 203.286,114.351 202.121,114.850 200.691 C 115.268 199.492,120.926 198.749,124.492 199.425 M153.083 199.998 C 171.118 203.837,183.531 224.537,178.322 242.085 L 177.954 243.326 176.268 243.984 C 163.694 248.893,150.973 247.720,141.757 240.800 C 135.810 236.335,130.981 229.795,127.343 221.277 C 126.308 218.855,126.302 219.020,127.459 218.419 C 128.581 217.837,132.400 214.097,136.468 209.597 C 138.416 207.442,139.292 204.261,138.672 201.588 C 138.485 200.781,138.466 200.795,140.380 200.322 C 144.088 199.406,149.637 199.264,153.083 199.998 M145.514 204.598 C 140.020 206.075,143.664 211.060,150.250 211.077 C 156.908 211.094,156.766 206.002,150.069 204.583 C 148.620 204.276,146.687 204.283,145.514 204.598 M82.583 219.805 C 83.775 220.165,85.612 220.619,86.667 220.815 C 89.922 221.421,90.218 221.498,90.960 221.933 C 91.356 222.166,91.899 222.657,92.166 223.025 L 92.650 223.694 92.233 224.639 C 89.572 230.658,83.314 235.509,77.948 235.711 L 76.917 235.750 76.616 235.136 C 75.940 233.753,74.763 223.153,75.166 222.080 C 76.247 219.199,78.392 218.541,82.583 219.805 M118.941 219.470 C 121.691 220.873,121.869 221.805,120.850 229.453 C 119.922 236.419,120.033 236.255,116.813 235.435 C 111.319 234.036,107.254 230.726,104.626 225.511 C 103.665 223.605,103.667 223.673,104.534 222.732 C 105.476 221.710,106.154 221.398,108.102 221.087 C 110.261 220.742,112.894 220.110,114.754 219.491 C 116.507 218.907,117.824 218.900,118.941 219.470 M57.667 221.173 C 61.347 221.627,69.615 223.840,70.484 224.604 C 70.522 224.637,70.871 227.084,71.261 230.043 C 72.019 235.798,72.243 236.723,73.248 238.236 C 74.420 240.001,76.793 241.659,78.556 241.944 C 79.428 242.085,79.442 242.232,78.755 244.010 C 73.352 258.000,59.058 265.368,42.922 262.481 C 32.847 260.678,23.982 254.555,19.986 246.638 L 19.489 245.653 20.100 244.118 C 26.620 227.750,40.797 219.091,57.667 221.173 M332.352 234.063 C 331.985 234.454,330.914 236.780,330.500 238.083 C 330.242 238.898,329.958 239.621,328.469 243.250 C 326.960 246.929,327.094 248.000,329.064 248.000 C 330.187 248.000,330.291 247.826,332.666 241.943 C 333.116 240.829,333.829 239.092,334.251 238.085 C 335.169 235.892,335.309 234.487,334.662 233.963 C 334.098 233.506,332.824 233.561,332.352 234.063 M279.853 234.188 C 276.942 234.671,275.121 237.090,276.679 238.402 C 277.521 239.110,278.396 239.011,279.482 238.083 C 280.409 237.292,280.939 237.161,281.739 237.525 C 282.920 238.063,282.111 239.169,279.317 240.833 C 276.935 242.252,275.585 244.892,276.418 246.503 C 276.828 247.296,277.048 247.333,281.247 247.333 L 285.182 247.333 285.591 246.924 C 286.184 246.331,286.171 245.142,285.564 244.580 C 285.153 244.199,284.997 244.173,282.857 244.130 L 280.585 244.083 282.045 243.122 C 284.916 241.233,285.667 240.199,285.667 238.139 C 285.667 235.190,283.341 233.609,279.853 234.188 M305.500 234.235 C 305.271 234.371,304.296 234.878,303.333 235.361 C 301.164 236.450,300.833 236.779,300.833 237.848 C 300.833 239.520,302.051 240.066,303.804 239.181 L 304.833 238.662 304.833 242.514 C 304.833 246.140,304.853 246.393,305.178 246.849 C 305.652 247.515,306.960 247.555,307.591 246.924 L 308.000 246.515 308.000 240.767 C 308.000 235.045,307.998 235.017,307.625 234.582 C 307.159 234.041,306.113 233.870,305.500 234.235 M343.782 234.187 C 342.568 234.359,340.889 235.235,340.476 235.911 C 339.236 237.945,341.298 239.806,343.095 238.276 C 344.313 237.239,345.139 237.055,345.802 237.673 C 346.477 238.302,345.797 239.351,344.134 240.247 C 341.102 241.881,339.848 243.786,340.248 246.152 C 340.443 247.312,340.532 247.333,345.128 247.333 L 349.182 247.333 349.591 246.924 C 350.181 246.335,350.166 245.211,349.561 244.606 C 349.129 244.175,349.080 244.167,346.874 244.167 C 344.252 244.167,344.260 244.190,346.419 242.753 C 351.953 239.071,350.171 233.283,343.782 234.187 M368.633 234.185 C 366.426 234.497,365.000 235.687,365.000 237.215 C 365.000 238.831,366.596 239.410,367.928 238.276 C 369.142 237.243,370.043 237.043,370.667 237.667 C 371.305 238.305,370.611 239.360,368.967 240.249 C 365.835 241.942,364.318 244.444,365.206 246.450 C 365.589 247.315,365.631 247.322,369.966 247.328 L 374.015 247.333 374.424 246.924 C 375.020 246.328,375.004 245.142,374.392 244.575 C 373.970 244.184,373.858 244.167,371.705 244.167 C 369.086 244.167,369.093 244.190,371.252 242.753 C 376.776 239.078,375.005 233.281,368.633 234.185 M196.586 234.528 C 195.721 235.208,195.667 235.576,195.667 240.750 C 195.667 247.582,195.494 247.334,200.231 247.332 C 203.869 247.331,204.344 247.242,205.221 246.390 C 206.794 244.862,206.936 242.520,205.549 240.984 L 204.950 240.321 205.430 239.819 C 205.933 239.295,206.199 237.482,205.931 236.413 C 205.785 235.832,204.696 234.663,204.047 234.391 C 203.043 233.971,197.157 234.079,196.586 234.528 M209.127 234.428 C 208.207 234.927,208.167 235.189,208.167 240.675 C 208.167 247.771,207.819 247.333,213.463 247.333 L 217.275 247.333 217.675 246.907 C 218.262 246.283,218.232 245.266,217.612 244.732 C 217.162 244.345,217.063 244.333,214.324 244.333 L 211.500 244.333 211.500 243.250 L 211.500 242.167 213.894 242.167 C 216.788 242.167,217.167 242.001,217.167 240.738 C 217.167 239.437,216.932 239.333,214.000 239.333 L 211.500 239.333 211.500 238.250 L 211.500 237.167 214.341 237.167 C 217.654 237.167,218.000 237.025,218.000 235.667 C 218.000 235.165,217.892 234.877,217.591 234.576 L 217.182 234.167 213.383 234.173 C 210.348 234.179,209.492 234.230,209.127 234.428 M221.583 234.875 C 220.756 235.704,220.579 236.333,220.333 239.317 C 220.245 240.380,220.061 242.037,219.923 243.000 C 219.393 246.705,219.631 247.500,221.270 247.500 C 222.474 247.500,222.910 247.093,223.064 245.822 C 223.238 244.391,223.666 239.792,223.666 239.342 C 223.667 238.323,224.003 239.521,224.645 242.833 C 225.487 247.178,225.685 247.500,227.506 247.500 C 229.671 247.500,229.716 247.420,230.746 241.822 C 231.180 239.463,231.484 238.455,231.495 239.333 C 231.502 239.810,231.937 244.465,232.102 245.822 C 232.257 247.093,232.693 247.500,233.897 247.500 C 235.816 247.500,235.821 247.441,234.735 238.333 C 234.338 235.003,233.717 234.166,231.647 234.167 C 229.219 234.169,229.110 234.391,227.787 242.000 L 227.599 243.083 227.395 241.917 C 226.082 234.394,225.967 234.169,223.436 234.167 C 222.309 234.167,222.278 234.179,221.583 234.875 M242.481 234.660 L 241.987 235.154 242.035 240.841 L 242.083 246.529 242.551 246.931 C 243.240 247.524,244.508 247.504,244.988 246.894 C 245.295 246.504,245.333 246.227,245.333 244.394 C 245.333 242.967,245.392 242.333,245.523 242.333 C 245.693 242.333,247.071 243.704,249.586 246.375 C 251.727 248.648,254.262 246.570,252.208 244.225 C 251.819 243.781,250.947 242.773,250.270 241.986 L 249.040 240.556 250.953 238.526 C 253.176 236.167,253.393 235.659,252.586 234.700 C 251.494 233.403,250.583 233.898,247.050 237.708 C 245.398 239.490,245.333 239.464,245.333 237.022 C 245.333 234.540,245.134 234.167,243.808 234.167 C 243.106 234.167,242.896 234.245,242.481 234.660 M256.148 234.794 L 255.476 235.421 254.905 239.419 C 253.834 246.915,253.901 247.500,255.833 247.500 C 256.968 247.500,257.412 247.069,257.564 245.822 C 257.738 244.391,258.166 239.792,258.166 239.342 C 258.167 238.335,258.501 239.492,259.077 242.500 C 259.933 246.975,260.252 247.501,262.114 247.499 C 263.852 247.498,264.499 246.784,264.845 244.482 C 265.216 242.014,265.693 239.424,265.817 239.202 C 265.887 239.077,266.077 240.424,266.240 242.196 C 266.713 247.365,266.769 247.500,268.398 247.500 C 270.246 247.500,270.392 246.498,269.501 239.928 C 268.810 234.840,268.418 234.166,266.147 234.167 C 264.066 234.169,263.547 234.852,262.919 238.417 C 262.678 239.792,262.390 241.394,262.281 241.977 L 262.083 243.037 261.527 239.810 C 260.842 235.830,260.783 235.636,260.010 234.823 C 259.074 233.839,257.187 233.825,256.148 234.794 M291.444 234.416 C 287.672 235.852,286.707 243.150,289.886 246.201 C 292.474 248.685,297.354 247.684,298.894 244.354 C 299.389 243.283,299.428 238.480,298.951 237.417 C 297.755 234.755,294.242 233.350,291.444 234.416 M314.314 234.397 C 312.118 235.181,311.177 236.474,311.170 238.714 C 311.162 241.705,312.773 243.096,316.103 242.972 C 318.797 242.873,317.571 243.740,314.661 243.993 C 312.373 244.191,311.654 244.742,311.909 246.100 C 312.297 248.168,317.801 247.747,320.035 245.478 C 322.374 243.102,322.375 237.264,320.036 235.204 C 318.942 234.240,315.938 233.816,314.314 234.397 M355.176 234.502 C 353.137 235.448,352.236 236.819,352.000 239.335 C 351.479 244.891,353.444 247.642,357.804 247.463 C 362.022 247.289,364.113 243.611,363.011 238.304 C 362.339 235.064,358.247 233.079,355.176 234.502 M380.008 234.510 C 377.979 235.435,377.069 236.817,376.833 239.335 C 376.312 244.890,378.276 247.629,382.667 247.470 C 386.838 247.319,388.942 243.593,387.845 238.304 C 387.167 235.039,383.134 233.086,380.008 234.510 M202.167 237.382 C 202.505 237.554,202.583 237.717,202.583 238.250 C 202.583 239.113,202.162 239.328,200.458 239.331 L 199.167 239.333 199.167 238.250 L 199.167 237.167 200.458 237.169 C 201.169 237.170,201.938 237.266,202.167 237.382 M294.674 237.587 C 296.171 238.361,296.156 243.275,294.654 244.041 C 292.981 244.895,291.680 243.755,291.535 241.308 C 291.354 238.259,292.757 236.596,294.674 237.587 M317.130 237.588 C 319.160 238.400,318.619 240.000,316.315 240.000 C 314.071 240.000,314.046 237.504,316.288 237.348 C 316.401 237.340,316.780 237.448,317.130 237.588 M358.635 237.671 C 360.126 238.580,360.193 242.986,358.731 243.944 C 357.065 245.036,355.517 243.822,355.368 241.308 C 355.183 238.181,356.700 236.491,358.635 237.671 M383.468 237.671 C 384.959 238.580,385.027 242.986,383.565 243.944 C 381.899 245.036,380.351 243.822,380.201 241.308 C 380.016 238.181,381.534 236.491,383.468 237.671 M66.728 241.473 C 62.075 243.081,58.675 249.309,61.748 250.593 C 65.069 251.981,71.720 245.951,70.684 242.492 C 70.302 241.217,68.678 240.799,66.728 241.473 M202.657 242.241 C 203.000 242.552,203.119 243.397,202.872 243.767 C 202.602 244.172,201.954 244.333,200.594 244.333 L 199.167 244.333 199.167 243.063 L 199.167 241.794 200.741 241.862 C 201.975 241.916,202.388 241.998,202.657 242.241 M170.333 254.385 C 170.333 254.414,170.090 254.658,169.792 254.927 L 169.250 255.417 169.740 254.875 C 170.196 254.370,170.333 254.257,170.333 254.385 M88.395 289.299 C 88.453 289.392,88.743 289.552,89.041 289.656 C 89.512 289.820,89.550 289.814,89.333 289.607 C 89.025 289.313,88.246 289.058,88.395 289.299 M96.708 291.615 C 96.869 291.657,97.131 291.657,97.292 291.615 C 97.452 291.573,97.321 291.539,97.000 291.539 C 96.679 291.539,96.548 291.573,96.708 291.615 " stroke="none" fill="#05573d" fill-rule="evenodd"></path><path id="path4" d="M94.667 109.171 C 87.171 109.680,79.848 112.894,74.064 118.216 C 72.884 119.302,70.612 121.637,70.140 122.250 C 69.928 122.525,69.616 122.900,69.445 123.083 C 69.275 123.267,68.902 123.754,68.618 124.167 C 68.192 124.784,67.465 125.765,66.702 126.750 C 66.631 126.842,66.425 127.205,66.245 127.558 C 66.064 127.911,65.774 128.474,65.600 128.808 C 65.425 129.143,65.151 129.754,64.989 130.167 C 64.828 130.579,64.393 131.592,64.023 132.417 C 63.653 133.242,62.956 135.117,62.474 136.583 L 61.597 139.250 57.007 141.875 C 54.482 143.318,50.129 145.820,47.333 147.433 C 44.538 149.047,39.887 151.720,37.000 153.373 C 28.382 158.309,26.971 159.694,25.377 164.784 L 24.918 166.250 24.870 185.722 L 24.823 205.193 26.203 203.998 C 31.493 199.415,36.082 197.133,43.150 195.570 L 43.550 195.481 43.440 191.366 C 43.380 189.102,43.283 185.994,43.224 184.458 L 43.118 181.667 42.597 181.667 L 42.076 181.667 41.188 184.346 C 39.836 188.431,38.230 189.663,35.750 188.518 C 33.406 187.437,33.289 185.864,35.167 180.677 C 35.900 178.651,36.500 176.953,36.500 176.902 C 36.500 176.714,41.380 163.397,41.620 162.932 C 44.093 158.127,51.595 158.899,53.323 164.135 C 53.450 164.519,53.623 164.833,53.708 164.833 C 53.836 164.833,58.098 162.569,61.822 160.524 L 62.727 160.027 63.332 161.394 C 64.171 163.287,66.446 167.070,67.250 167.908 C 67.617 168.291,68.493 169.274,69.198 170.094 C 69.903 170.913,70.993 172.033,71.620 172.582 L 72.761 173.580 72.763 177.165 C 72.767 182.290,73.567 184.947,76.051 188.089 C 81.268 194.686,88.832 195.098,93.001 189.012 C 94.269 187.160,98.145 182.500,98.417 182.500 C 98.714 182.500,102.436 186.953,103.589 188.688 C 107.459 194.512,113.832 194.913,119.381 189.681 C 123.370 185.921,125.056 179.488,123.763 172.968 L 123.442 171.352 124.518 170.211 C 125.110 169.584,125.967 168.567,126.422 167.952 C 126.877 167.337,127.299 166.833,127.359 166.833 C 127.737 166.833,130.180 162.315,131.079 159.953 C 131.246 159.514,131.440 159.120,131.511 159.077 C 131.659 158.985,133.838 160.046,135.712 161.123 L 137.008 161.867 147.165 161.842 C 158.555 161.815,158.364 161.798,159.444 162.921 C 161.009 164.548,160.699 166.982,158.765 168.235 C 158.108 168.661,158.061 168.667,154.883 168.667 L 151.667 168.667 151.667 169.661 C 151.667 170.482,151.767 170.838,152.243 171.704 C 153.671 174.301,153.691 174.563,153.325 185.851 C 153.158 191.020,153.016 195.263,153.010 195.279 C 153.005 195.296,152.869 195.343,152.708 195.385 C 152.513 195.436,152.555 195.468,152.838 195.481 C 157.158 195.679,164.860 199.355,169.800 203.577 L 171.667 205.172 171.665 186.378 C 171.665 174.019,171.604 167.212,171.489 166.500 C 171.002 163.499,169.679 161.009,167.326 158.667 C 165.595 156.943,166.297 157.389,155.500 151.160 C 148.282 146.996,141.880 143.292,136.891 140.394 C 134.310 138.895,132.082 137.624,131.939 137.569 C 131.791 137.512,131.460 136.794,131.165 135.887 C 130.494 133.821,129.348 131.220,128.322 129.430 C 127.870 128.641,127.500 127.859,127.500 127.692 C 127.500 127.386,126.735 126.216,125.393 124.471 C 124.994 123.951,124.667 123.451,124.667 123.360 C 124.667 123.269,124.610 123.169,124.542 123.139 C 124.473 123.108,124.068 122.671,123.641 122.167 C 122.475 120.787,119.060 117.460,117.932 116.604 C 110.687 111.106,102.887 108.613,94.667 109.171 M99.743 113.674 C 118.522 115.825,132.803 136.786,127.987 155.129 C 126.917 159.204,125.159 162.636,122.355 166.125 C 121.118 167.663,121.145 167.650,120.432 167.107 C 117.652 164.986,115.006 164.739,110.536 166.183 C 109.096 166.648,106.653 167.434,105.109 167.930 C 101.760 169.005,100.648 169.567,99.385 170.824 L 98.436 171.768 97.482 170.828 C 96.575 169.936,94.497 168.667,93.942 168.667 C 93.800 168.667,91.380 167.911,88.564 166.988 C 81.101 164.542,78.984 164.697,75.682 167.935 C 74.256 169.334,74.443 169.355,72.820 167.606 C 63.270 157.309,62.355 142.325,70.489 129.417 C 77.284 118.635,88.826 112.423,99.743 113.674 M119.927 149.121 C 119.308 149.279,118.321 150.056,117.747 150.838 C 113.687 156.368,116.129 164.504,120.434 159.790 C 123.963 155.925,123.596 148.187,119.927 149.121 M74.417 149.716 C 72.571 151.563,73.432 157.213,75.964 159.868 C 78.500 162.529,80.692 160.942,80.453 156.618 C 80.183 151.709,76.563 147.570,74.417 149.716 M46.753 167.826 C 46.387 168.926,46.466 169.076,47.124 168.531 C 47.596 168.140,47.648 168.021,47.532 167.594 C 47.323 166.829,47.057 166.909,46.753 167.826 M87.816 171.269 C 93.230 173.027,93.673 173.211,94.440 174.027 C 96.151 175.845,96.223 178.272,94.621 180.162 C 94.233 180.619,93.166 181.875,92.249 182.954 C 91.332 184.034,90.146 185.566,89.614 186.359 C 86.840 190.498,81.803 189.563,78.633 184.320 C 76.274 180.419,76.515 172.531,79.053 170.595 C 80.861 169.216,81.691 169.280,87.816 171.269 M116.589 169.908 C 118.864 170.859,119.826 173.167,119.831 177.682 C 119.836 182.695,117.729 186.429,113.769 188.422 C 110.955 189.839,109.050 189.088,106.682 185.625 C 106.039 184.686,104.675 182.979,103.651 181.833 C 100.551 178.363,100.235 176.232,102.490 174.000 L 103.417 173.083 108.583 171.392 C 114.145 169.571,115.278 169.361,116.589 169.908 M116.416 251.583 C 116.890 252.416,118.124 254.167,118.237 254.167 C 118.301 254.167,116.190 250.970,116.035 250.833 C 115.983 250.787,116.154 251.125,116.416 251.583 M118.503 254.587 C 118.619 254.727,118.685 254.866,118.649 254.896 C 118.613 254.926,118.105 255.227,117.519 255.566 C 116.934 255.905,115.184 256.985,113.631 257.966 C 112.077 258.947,109.821 260.334,108.617 261.048 C 107.414 261.762,106.314 262.444,106.173 262.564 C 102.690 265.524,97.480 266.524,94.215 264.858 C 93.223 264.352,93.151 264.396,93.468 265.322 C 94.219 267.512,95.947 268.728,98.309 268.728 C 100.465 268.728,101.503 268.069,103.378 265.508 C 105.628 262.436,110.264 264.731,109.344 268.460 C 107.594 275.546,95.978 277.851,89.933 272.312 C 87.221 269.827,86.089 266.975,85.880 262.102 L 85.780 259.787 83.682 258.424 C 80.967 256.660,77.927 254.830,77.735 254.844 C 77.651 254.851,77.134 255.389,76.585 256.041 C 73.239 260.015,67.749 263.642,62.262 265.505 C 60.961 265.946,60.947 265.957,61.345 266.205 C 61.820 266.501,69.147 270.743,76.250 274.835 C 79.000 276.420,82.300 278.331,83.583 279.083 C 93.598 284.952,94.918 285.488,98.833 285.281 C 102.040 285.112,103.362 284.592,109.188 281.209 C 111.239 280.018,114.717 278.007,116.917 276.741 C 119.117 275.475,122.792 273.358,125.083 272.037 C 127.375 270.716,130.654 268.836,132.370 267.859 C 135.861 265.872,135.760 265.963,134.792 265.677 C 129.483 264.109,123.402 260.126,119.679 255.779 C 118.998 254.984,118.407 254.333,118.367 254.333 C 118.326 254.333,118.387 254.448,118.503 254.587 " stroke="none" fill="#f31e5e" fill-rule="evenodd"></path></g></svg>